G75*
%MOIN*%
%OFA0B0*%
%FSLAX25Y25*%
%IPPOS*%
%LPD*%
%AMOC8*
5,1,8,0,0,1.08239X$1,22.5*
%
%ADD10C,0.00000*%
%ADD11OC8,0.05200*%
%ADD12C,0.05200*%
%ADD13C,0.05150*%
%ADD14C,0.11220*%
%ADD15C,0.07400*%
%ADD16C,0.05200*%
%ADD17C,0.05937*%
%ADD18C,0.01600*%
%ADD19C,0.02578*%
D10*
X0001400Y0007548D02*
X0001400Y0204398D01*
X0198250Y0204398D01*
X0198250Y0007548D01*
X0001400Y0007548D01*
D11*
X0016400Y0012548D03*
X0016400Y0022548D03*
X0036400Y0022548D03*
X0036400Y0012548D03*
X0060400Y0036048D03*
X0076400Y0027548D03*
X0076400Y0017548D03*
X0091400Y0017548D03*
X0098900Y0022548D03*
X0091400Y0027548D03*
X0111400Y0027548D03*
X0111400Y0017548D03*
X0071400Y0052548D03*
X0071400Y0062548D03*
X0051400Y0077548D03*
X0041400Y0077548D03*
X0031400Y0077548D03*
X0031400Y0117548D03*
X0041400Y0117548D03*
X0051400Y0117548D03*
X0056400Y0197548D03*
X0096400Y0197548D03*
X0131400Y0182548D03*
X0131400Y0172548D03*
X0151400Y0102548D03*
D12*
X0131400Y0102548D03*
X0060400Y0016048D03*
D13*
X0128526Y0017548D03*
X0136400Y0017548D03*
X0144274Y0017548D03*
X0162321Y0021749D03*
X0167046Y0024898D03*
X0162321Y0028048D03*
X0167046Y0031198D03*
X0162321Y0034347D03*
D14*
X0182400Y0042418D03*
X0182400Y0013678D03*
D15*
X0193900Y0072548D03*
X0193900Y0082548D03*
X0193900Y0092548D03*
X0193900Y0102548D03*
X0193900Y0112548D03*
X0193900Y0122548D03*
X0193900Y0132548D03*
X0193900Y0142548D03*
X0066400Y0112548D03*
X0066400Y0102548D03*
X0066400Y0092548D03*
X0031400Y0052548D03*
X0011400Y0052548D03*
X0006400Y0072548D03*
X0006400Y0082548D03*
X0006400Y0092548D03*
X0006400Y0102548D03*
X0006400Y0112548D03*
X0006400Y0122548D03*
X0006400Y0132548D03*
X0006400Y0142548D03*
X0006400Y0152548D03*
X0006400Y0162548D03*
X0006400Y0172548D03*
X0006400Y0182548D03*
X0006400Y0192548D03*
X0026400Y0192548D03*
X0046400Y0192548D03*
D16*
X0083800Y0182548D02*
X0089000Y0182548D01*
X0089000Y0172548D02*
X0083800Y0172548D01*
X0083800Y0162548D02*
X0089000Y0162548D01*
X0089000Y0152548D02*
X0083800Y0152548D01*
X0083800Y0142548D02*
X0089000Y0142548D01*
X0089000Y0132548D02*
X0083800Y0132548D01*
X0083800Y0122548D02*
X0089000Y0122548D01*
X0089000Y0112548D02*
X0083800Y0112548D01*
X0083800Y0102548D02*
X0089000Y0102548D01*
X0089000Y0092548D02*
X0083800Y0092548D01*
X0083800Y0082548D02*
X0089000Y0082548D01*
X0089000Y0072548D02*
X0083800Y0072548D01*
X0083800Y0062548D02*
X0089000Y0062548D01*
X0089000Y0052548D02*
X0083800Y0052548D01*
X0113800Y0052548D02*
X0119000Y0052548D01*
X0119000Y0062548D02*
X0113800Y0062548D01*
X0113800Y0072548D02*
X0119000Y0072548D01*
X0119000Y0082548D02*
X0113800Y0082548D01*
X0113800Y0092548D02*
X0119000Y0092548D01*
X0119000Y0102548D02*
X0113800Y0102548D01*
X0113800Y0112548D02*
X0119000Y0112548D01*
X0119000Y0122548D02*
X0113800Y0122548D01*
X0113800Y0132548D02*
X0119000Y0132548D01*
X0119000Y0142548D02*
X0113800Y0142548D01*
X0113800Y0152548D02*
X0119000Y0152548D01*
X0119000Y0162548D02*
X0113800Y0162548D01*
X0113800Y0172548D02*
X0119000Y0172548D01*
X0119000Y0182548D02*
X0113800Y0182548D01*
D17*
X0120652Y0017548D03*
X0152148Y0017548D03*
D18*
X0154125Y0021749D02*
X0153958Y0021917D01*
X0140769Y0021917D01*
X0136400Y0017548D01*
X0128526Y0017548D02*
X0118526Y0027548D01*
X0111400Y0027548D01*
X0103900Y0027548D01*
X0098900Y0022548D01*
X0091400Y0017548D02*
X0080400Y0028548D01*
X0080400Y0029205D01*
X0078057Y0031548D01*
X0077400Y0031548D01*
X0076400Y0032548D01*
X0076400Y0062548D01*
X0086400Y0062548D01*
X0101400Y0077548D01*
X0101400Y0117548D01*
X0116400Y0132548D01*
X0101400Y0147548D01*
X0101400Y0167548D01*
X0116400Y0182548D01*
X0111400Y0182548D01*
X0096400Y0197548D01*
X0071400Y0197548D01*
X0076400Y0192548D02*
X0086400Y0182548D01*
X0086400Y0172548D02*
X0036400Y0172548D01*
X0006400Y0142548D01*
X0006400Y0132548D02*
X0036400Y0162548D01*
X0086400Y0162548D01*
X0071400Y0182548D02*
X0006400Y0182548D01*
X0006400Y0192548D02*
X0026400Y0192548D01*
X0031500Y0197648D01*
X0048512Y0197648D01*
X0048612Y0197548D01*
X0056400Y0197548D01*
X0061400Y0192548D01*
X0076400Y0192548D01*
X0116400Y0182548D02*
X0131400Y0182548D01*
X0116400Y0162548D02*
X0173900Y0162548D01*
X0193900Y0142548D01*
X0193900Y0132548D02*
X0173900Y0152548D01*
X0116400Y0152548D01*
X0116400Y0142548D02*
X0173900Y0142548D01*
X0193900Y0122548D01*
X0193900Y0112548D02*
X0163900Y0082548D01*
X0116400Y0082548D01*
X0116400Y0072548D02*
X0163900Y0072548D01*
X0193900Y0102548D01*
X0193900Y0092548D02*
X0163900Y0062548D01*
X0116400Y0062548D01*
X0116400Y0052548D02*
X0163900Y0052548D01*
X0193900Y0082548D01*
X0166400Y0107548D02*
X0161400Y0112548D01*
X0116400Y0112548D01*
X0116400Y0102548D02*
X0131400Y0102548D01*
X0116400Y0122548D02*
X0161400Y0122548D01*
X0171020Y0112928D01*
X0161400Y0047548D02*
X0091400Y0047548D01*
X0086400Y0052548D01*
X0076400Y0062548D02*
X0071400Y0062548D01*
X0066400Y0067548D01*
X0021400Y0067548D01*
X0006400Y0082548D01*
X0016400Y0092548D01*
X0016400Y0102548D01*
X0031400Y0117548D01*
X0016400Y0122548D02*
X0006400Y0112548D01*
X0006400Y0122548D02*
X0016400Y0132548D01*
X0086400Y0132548D01*
X0086400Y0122548D02*
X0016400Y0122548D01*
X0036400Y0082548D02*
X0031400Y0077548D01*
X0036400Y0082548D02*
X0086400Y0082548D01*
X0086400Y0092548D02*
X0066400Y0092548D01*
X0076400Y0102548D02*
X0066400Y0112548D01*
X0076400Y0102548D02*
X0086400Y0102548D01*
X0061400Y0062548D02*
X0021400Y0062548D01*
X0021400Y0042548D01*
X0006400Y0027548D01*
X0006400Y0022548D01*
X0016400Y0012548D01*
X0036400Y0012548D02*
X0039900Y0016048D01*
X0060400Y0016048D01*
X0061900Y0017548D01*
X0076400Y0017548D01*
X0091400Y0017548D01*
X0146400Y0042548D02*
X0160900Y0028048D01*
X0162321Y0028048D01*
X0167046Y0031198D02*
X0167046Y0041902D01*
X0161400Y0047548D01*
X0162321Y0021749D02*
X0154125Y0021749D01*
D19*
X0146400Y0042548D03*
X0166400Y0107548D03*
X0171020Y0112928D03*
X0071400Y0182548D03*
X0071400Y0197548D03*
X0061400Y0062548D03*
X0021400Y0062548D03*
M02*
