G75*
%MOIN*%
%OFA0B0*%
%FSLAX25Y25*%
%IPPOS*%
%LPD*%
%AMOC8*
5,1,8,0,0,1.08239X$1,22.5*
%
%ADD10C,0.00000*%
%ADD11OC8,0.05200*%
%ADD12C,0.05200*%
%ADD13C,0.05150*%
%ADD14C,0.11220*%
%ADD15C,0.07400*%
%ADD16C,0.05200*%
%ADD17C,0.05937*%
%ADD18C,0.01600*%
%ADD19C,0.00600*%
%ADD20C,0.02578*%
D10*
X0001400Y0007548D02*
X0001400Y0204398D01*
X0198250Y0204398D01*
X0198250Y0007548D01*
X0001400Y0007548D01*
D11*
X0016400Y0012548D03*
X0016400Y0022548D03*
X0036400Y0022548D03*
X0036400Y0012548D03*
X0060400Y0036048D03*
X0076400Y0027548D03*
X0076400Y0017548D03*
X0091400Y0017548D03*
X0098900Y0022548D03*
X0091400Y0027548D03*
X0111400Y0027548D03*
X0111400Y0017548D03*
X0071400Y0052548D03*
X0071400Y0062548D03*
X0051400Y0077548D03*
X0041400Y0077548D03*
X0031400Y0077548D03*
X0031400Y0117548D03*
X0041400Y0117548D03*
X0051400Y0117548D03*
X0056400Y0197548D03*
X0096400Y0197548D03*
X0131400Y0182548D03*
X0131400Y0172548D03*
X0151400Y0102548D03*
D12*
X0131400Y0102548D03*
X0060400Y0016048D03*
D13*
X0128526Y0017548D03*
X0136400Y0017548D03*
X0144274Y0017548D03*
X0162321Y0021749D03*
X0167046Y0024898D03*
X0162321Y0028048D03*
X0167046Y0031198D03*
X0162321Y0034347D03*
D14*
X0182400Y0042418D03*
X0182400Y0013678D03*
D15*
X0193900Y0072548D03*
X0193900Y0082548D03*
X0193900Y0092548D03*
X0193900Y0102548D03*
X0193900Y0112548D03*
X0193900Y0122548D03*
X0193900Y0132548D03*
X0193900Y0142548D03*
X0066400Y0112548D03*
X0066400Y0102548D03*
X0066400Y0092548D03*
X0031400Y0052548D03*
X0011400Y0052548D03*
X0006400Y0072548D03*
X0006400Y0082548D03*
X0006400Y0092548D03*
X0006400Y0102548D03*
X0006400Y0112548D03*
X0006400Y0122548D03*
X0006400Y0132548D03*
X0006400Y0142548D03*
X0006400Y0152548D03*
X0006400Y0162548D03*
X0006400Y0172548D03*
X0006400Y0182548D03*
X0006400Y0192548D03*
X0026400Y0192548D03*
X0046400Y0192548D03*
D16*
X0083800Y0182548D02*
X0089000Y0182548D01*
X0089000Y0172548D02*
X0083800Y0172548D01*
X0083800Y0162548D02*
X0089000Y0162548D01*
X0089000Y0152548D02*
X0083800Y0152548D01*
X0083800Y0142548D02*
X0089000Y0142548D01*
X0089000Y0132548D02*
X0083800Y0132548D01*
X0083800Y0122548D02*
X0089000Y0122548D01*
X0089000Y0112548D02*
X0083800Y0112548D01*
X0083800Y0102548D02*
X0089000Y0102548D01*
X0089000Y0092548D02*
X0083800Y0092548D01*
X0083800Y0082548D02*
X0089000Y0082548D01*
X0089000Y0072548D02*
X0083800Y0072548D01*
X0083800Y0062548D02*
X0089000Y0062548D01*
X0089000Y0052548D02*
X0083800Y0052548D01*
X0113800Y0052548D02*
X0119000Y0052548D01*
X0119000Y0062548D02*
X0113800Y0062548D01*
X0113800Y0072548D02*
X0119000Y0072548D01*
X0119000Y0082548D02*
X0113800Y0082548D01*
X0113800Y0092548D02*
X0119000Y0092548D01*
X0119000Y0102548D02*
X0113800Y0102548D01*
X0113800Y0112548D02*
X0119000Y0112548D01*
X0119000Y0122548D02*
X0113800Y0122548D01*
X0113800Y0132548D02*
X0119000Y0132548D01*
X0119000Y0142548D02*
X0113800Y0142548D01*
X0113800Y0152548D02*
X0119000Y0152548D01*
X0119000Y0162548D02*
X0113800Y0162548D01*
X0113800Y0172548D02*
X0119000Y0172548D01*
X0119000Y0182548D02*
X0113800Y0182548D01*
D17*
X0120652Y0017548D03*
X0152148Y0017548D03*
D18*
X0167046Y0024898D02*
X0167046Y0025576D01*
X0171020Y0029551D01*
X0171020Y0112928D01*
X0166400Y0107548D02*
X0166400Y0062548D01*
X0146400Y0042548D01*
X0116400Y0052548D02*
X0111400Y0047548D01*
X0111400Y0027548D01*
X0086400Y0072548D02*
X0071400Y0072548D01*
X0061400Y0062548D01*
X0051400Y0077548D02*
X0051400Y0037548D01*
X0036400Y0022548D01*
X0026400Y0022548D02*
X0016400Y0022548D01*
X0026400Y0022548D02*
X0041400Y0037548D01*
X0041400Y0077548D01*
X0031400Y0077548D02*
X0031400Y0052548D01*
X0021400Y0062548D02*
X0021400Y0077548D01*
X0006400Y0092548D01*
X0006400Y0102548D02*
X0031400Y0077548D01*
X0016400Y0142548D02*
X0006400Y0152548D01*
X0016400Y0152548D02*
X0006400Y0162548D01*
X0016400Y0152548D02*
X0086400Y0152548D01*
X0086400Y0142548D02*
X0016400Y0142548D01*
X0071400Y0182548D02*
X0071400Y0197548D01*
D19*
X0068764Y0198473D02*
X0060500Y0198473D01*
X0060500Y0197875D02*
X0068611Y0197875D01*
X0068611Y0198103D02*
X0068611Y0196993D01*
X0069036Y0195968D01*
X0069100Y0195904D01*
X0069100Y0184192D01*
X0069036Y0184128D01*
X0068611Y0183103D01*
X0068611Y0181993D01*
X0069036Y0180968D01*
X0069820Y0180184D01*
X0070845Y0179759D01*
X0071955Y0179759D01*
X0072980Y0180184D01*
X0073764Y0180968D01*
X0074189Y0181993D01*
X0074189Y0183103D01*
X0073764Y0184128D01*
X0073700Y0184192D01*
X0073700Y0195904D01*
X0073764Y0195968D01*
X0074189Y0196993D01*
X0074189Y0198103D01*
X0073764Y0199128D01*
X0072980Y0199912D01*
X0071955Y0200337D01*
X0070845Y0200337D01*
X0069820Y0199912D01*
X0069036Y0199128D01*
X0068611Y0198103D01*
X0068611Y0197276D02*
X0060500Y0197276D01*
X0060500Y0196678D02*
X0068742Y0196678D01*
X0068990Y0196079D02*
X0060500Y0196079D01*
X0060500Y0195850D02*
X0058098Y0193448D01*
X0054702Y0193448D01*
X0052300Y0195850D01*
X0052300Y0199246D01*
X0054702Y0201648D01*
X0058098Y0201648D01*
X0060500Y0199246D01*
X0060500Y0195850D01*
X0060131Y0195481D02*
X0069100Y0195481D01*
X0069100Y0194882D02*
X0059532Y0194882D01*
X0058934Y0194284D02*
X0069100Y0194284D01*
X0069100Y0193685D02*
X0058335Y0193685D01*
X0054465Y0193685D02*
X0051282Y0193685D01*
X0051277Y0193719D02*
X0051034Y0194467D01*
X0050676Y0195169D01*
X0050214Y0195805D01*
X0049657Y0196362D01*
X0049021Y0196824D01*
X0048319Y0197182D01*
X0047571Y0197425D01*
X0046794Y0197548D01*
X0046700Y0197548D01*
X0046700Y0192848D01*
X0051400Y0192848D01*
X0051400Y0192942D01*
X0051277Y0193719D01*
X0051093Y0194284D02*
X0053866Y0194284D01*
X0053268Y0194882D02*
X0050822Y0194882D01*
X0050450Y0195481D02*
X0052669Y0195481D01*
X0052300Y0196079D02*
X0049940Y0196079D01*
X0049223Y0196678D02*
X0052300Y0196678D01*
X0052300Y0197276D02*
X0048029Y0197276D01*
X0046700Y0197276D02*
X0046100Y0197276D01*
X0046100Y0197548D02*
X0046006Y0197548D01*
X0045229Y0197425D01*
X0044481Y0197182D01*
X0043779Y0196824D01*
X0043143Y0196362D01*
X0042586Y0195805D01*
X0042124Y0195169D01*
X0041766Y0194467D01*
X0041523Y0193719D01*
X0041400Y0192942D01*
X0041400Y0192848D01*
X0046100Y0192848D01*
X0046100Y0192248D01*
X0046700Y0192248D01*
X0046700Y0187548D01*
X0046794Y0187548D01*
X0047571Y0187671D01*
X0048319Y0187914D01*
X0049021Y0188272D01*
X0049657Y0188734D01*
X0050214Y0189291D01*
X0050676Y0189927D01*
X0051034Y0190629D01*
X0051277Y0191377D01*
X0051400Y0192155D01*
X0051400Y0192248D01*
X0046700Y0192248D01*
X0046700Y0192848D01*
X0046100Y0192848D01*
X0046100Y0197548D01*
X0046100Y0196678D02*
X0046700Y0196678D01*
X0046700Y0196079D02*
X0046100Y0196079D01*
X0046100Y0195481D02*
X0046700Y0195481D01*
X0046700Y0194882D02*
X0046100Y0194882D01*
X0046100Y0194284D02*
X0046700Y0194284D01*
X0046700Y0193685D02*
X0046100Y0193685D01*
X0046100Y0193087D02*
X0046700Y0193087D01*
X0046700Y0192488D02*
X0069100Y0192488D01*
X0069100Y0191890D02*
X0051358Y0191890D01*
X0051249Y0191291D02*
X0069100Y0191291D01*
X0069100Y0190692D02*
X0051054Y0190692D01*
X0050761Y0190094D02*
X0069100Y0190094D01*
X0069100Y0189495D02*
X0050363Y0189495D01*
X0049820Y0188897D02*
X0069100Y0188897D01*
X0069100Y0188298D02*
X0049057Y0188298D01*
X0047659Y0187700D02*
X0069100Y0187700D01*
X0069100Y0187101D02*
X0008995Y0187101D01*
X0009346Y0186956D02*
X0007917Y0187548D01*
X0009346Y0188140D01*
X0010808Y0189602D01*
X0011600Y0191514D01*
X0011600Y0193582D01*
X0010808Y0195494D01*
X0009346Y0196956D01*
X0007434Y0197748D01*
X0005366Y0197748D01*
X0003454Y0196956D01*
X0002900Y0196402D01*
X0002900Y0202548D01*
X0196400Y0202548D01*
X0196400Y0147141D01*
X0194934Y0147748D01*
X0192866Y0147748D01*
X0190954Y0146956D01*
X0189492Y0145494D01*
X0188700Y0143582D01*
X0188700Y0141514D01*
X0189492Y0139602D01*
X0190954Y0138140D01*
X0192383Y0137548D01*
X0190954Y0136956D01*
X0189492Y0135494D01*
X0188700Y0133582D01*
X0188700Y0131514D01*
X0189492Y0129602D01*
X0190954Y0128140D01*
X0192383Y0127548D01*
X0190954Y0126956D01*
X0189492Y0125494D01*
X0188700Y0123582D01*
X0188700Y0121514D01*
X0189492Y0119602D01*
X0190954Y0118140D01*
X0192383Y0117548D01*
X0190954Y0116956D01*
X0189492Y0115494D01*
X0188700Y0113582D01*
X0188700Y0111514D01*
X0189492Y0109602D01*
X0190954Y0108140D01*
X0192383Y0107548D01*
X0190954Y0106956D01*
X0189492Y0105494D01*
X0188700Y0103582D01*
X0188700Y0101514D01*
X0173320Y0101514D01*
X0173320Y0100916D02*
X0188948Y0100916D01*
X0188700Y0101514D02*
X0189492Y0099602D01*
X0190954Y0098140D01*
X0192383Y0097548D01*
X0190954Y0096956D01*
X0189492Y0095494D01*
X0188700Y0093582D01*
X0188700Y0091514D01*
X0189492Y0089602D01*
X0190954Y0088140D01*
X0192383Y0087548D01*
X0190954Y0086956D01*
X0189492Y0085494D01*
X0188700Y0083582D01*
X0188700Y0081514D01*
X0189492Y0079602D01*
X0190954Y0078140D01*
X0192702Y0077416D01*
X0191981Y0077182D01*
X0191279Y0076824D01*
X0190643Y0076362D01*
X0190086Y0075805D01*
X0189624Y0075169D01*
X0189266Y0074467D01*
X0189023Y0073719D01*
X0188900Y0072942D01*
X0188900Y0072848D01*
X0193600Y0072848D01*
X0193600Y0072248D01*
X0194200Y0072248D01*
X0194200Y0067548D01*
X0194294Y0067548D01*
X0195071Y0067671D01*
X0195819Y0067914D01*
X0196400Y0068210D01*
X0196400Y0009048D01*
X0187825Y0009048D01*
X0188428Y0009650D01*
X0189510Y0012264D01*
X0189510Y0015092D01*
X0188428Y0017706D01*
X0186428Y0019706D01*
X0183814Y0020788D01*
X0180986Y0020788D01*
X0178372Y0019706D01*
X0176372Y0017706D01*
X0175290Y0015092D01*
X0175290Y0012264D01*
X0176372Y0009650D01*
X0176975Y0009048D01*
X0038698Y0009048D01*
X0040500Y0010850D01*
X0040500Y0014246D01*
X0038098Y0016648D01*
X0034702Y0016648D01*
X0032300Y0014246D01*
X0032300Y0010850D01*
X0034102Y0009048D01*
X0018698Y0009048D01*
X0020500Y0010850D01*
X0020500Y0014246D01*
X0018098Y0016648D01*
X0014702Y0016648D01*
X0012300Y0014246D01*
X0012300Y0010850D01*
X0014102Y0009048D01*
X0002900Y0009048D01*
X0002900Y0068977D01*
X0003143Y0068734D01*
X0003779Y0068272D01*
X0004481Y0067914D01*
X0005229Y0067671D01*
X0006006Y0067548D01*
X0006100Y0067548D01*
X0006100Y0072248D01*
X0006700Y0072248D01*
X0006700Y0067548D01*
X0006794Y0067548D01*
X0007571Y0067671D01*
X0008319Y0067914D01*
X0009021Y0068272D01*
X0009657Y0068734D01*
X0010214Y0069291D01*
X0010676Y0069927D01*
X0011034Y0070629D01*
X0011277Y0071377D01*
X0011400Y0072155D01*
X0011400Y0072248D01*
X0006700Y0072248D01*
X0006700Y0072848D01*
X0011400Y0072848D01*
X0011400Y0072942D01*
X0011277Y0073719D01*
X0011034Y0074467D01*
X0010676Y0075169D01*
X0010214Y0075805D01*
X0009657Y0076362D01*
X0009021Y0076824D01*
X0008319Y0077182D01*
X0007598Y0077416D01*
X0009346Y0078140D01*
X0010808Y0079602D01*
X0011600Y0081514D01*
X0011600Y0083582D01*
X0011237Y0084458D01*
X0019100Y0076595D01*
X0019100Y0064192D01*
X0019036Y0064128D01*
X0018611Y0063103D01*
X0018611Y0061993D01*
X0019036Y0060968D01*
X0019820Y0060184D01*
X0020845Y0059759D01*
X0021955Y0059759D01*
X0022980Y0060184D01*
X0023764Y0060968D01*
X0024189Y0061993D01*
X0024189Y0063103D01*
X0023764Y0064128D01*
X0023700Y0064192D01*
X0023700Y0078501D01*
X0022353Y0079848D01*
X0011333Y0090868D01*
X0011600Y0091514D01*
X0011600Y0093582D01*
X0011237Y0094458D01*
X0027300Y0078395D01*
X0027300Y0075850D01*
X0029100Y0074050D01*
X0029100Y0057224D01*
X0028454Y0056956D01*
X0026992Y0055494D01*
X0026200Y0053582D01*
X0026200Y0051514D01*
X0026992Y0049602D01*
X0028454Y0048140D01*
X0030366Y0047348D01*
X0032434Y0047348D01*
X0034346Y0048140D01*
X0035808Y0049602D01*
X0036600Y0051514D01*
X0036600Y0053582D01*
X0035808Y0055494D01*
X0034346Y0056956D01*
X0033700Y0057224D01*
X0033700Y0074050D01*
X0035500Y0075850D01*
X0035500Y0079246D01*
X0033098Y0081648D01*
X0030553Y0081648D01*
X0011333Y0100868D01*
X0011600Y0101514D01*
X0061501Y0101514D01*
X0061523Y0101377D02*
X0061766Y0100629D01*
X0062124Y0099927D01*
X0062586Y0099291D01*
X0063143Y0098734D01*
X0063779Y0098272D01*
X0064481Y0097914D01*
X0065202Y0097680D01*
X0063454Y0096956D01*
X0061992Y0095494D01*
X0061200Y0093582D01*
X0061200Y0091514D01*
X0061992Y0089602D01*
X0063454Y0088140D01*
X0065366Y0087348D01*
X0067434Y0087348D01*
X0069346Y0088140D01*
X0070808Y0089602D01*
X0071600Y0091514D01*
X0071600Y0093582D01*
X0070808Y0095494D01*
X0069346Y0096956D01*
X0067598Y0097680D01*
X0068319Y0097914D01*
X0069021Y0098272D01*
X0069657Y0098734D01*
X0070214Y0099291D01*
X0070676Y0099927D01*
X0071034Y0100629D01*
X0071277Y0101377D01*
X0071400Y0102155D01*
X0071400Y0102248D01*
X0066700Y0102248D01*
X0066700Y0102848D01*
X0071400Y0102848D01*
X0071400Y0102942D01*
X0071277Y0103719D01*
X0071034Y0104467D01*
X0070676Y0105169D01*
X0070214Y0105805D01*
X0069657Y0106362D01*
X0069021Y0106824D01*
X0068319Y0107182D01*
X0067598Y0107416D01*
X0069346Y0108140D01*
X0070808Y0109602D01*
X0071600Y0111514D01*
X0071600Y0113582D01*
X0070808Y0115494D01*
X0069346Y0116956D01*
X0067434Y0117748D01*
X0065366Y0117748D01*
X0063454Y0116956D01*
X0061992Y0115494D01*
X0061200Y0113582D01*
X0061200Y0111514D01*
X0061992Y0109602D01*
X0063454Y0108140D01*
X0065202Y0107416D01*
X0064481Y0107182D01*
X0063779Y0106824D01*
X0063143Y0106362D01*
X0062586Y0105805D01*
X0062124Y0105169D01*
X0061766Y0104467D01*
X0061523Y0103719D01*
X0061400Y0102942D01*
X0061400Y0102848D01*
X0066100Y0102848D01*
X0066100Y0102248D01*
X0061400Y0102248D01*
X0061400Y0102155D01*
X0061523Y0101377D01*
X0061673Y0100916D02*
X0011352Y0100916D01*
X0011600Y0101514D02*
X0011600Y0103582D01*
X0010808Y0105494D01*
X0009346Y0106956D01*
X0007917Y0107548D01*
X0009346Y0108140D01*
X0010808Y0109602D01*
X0011600Y0111514D01*
X0011600Y0113582D01*
X0010808Y0115494D01*
X0009346Y0116956D01*
X0007917Y0117548D01*
X0009346Y0118140D01*
X0010808Y0119602D01*
X0011600Y0121514D01*
X0011600Y0123582D01*
X0010808Y0125494D01*
X0009346Y0126956D01*
X0007917Y0127548D01*
X0009346Y0128140D01*
X0010808Y0129602D01*
X0011600Y0131514D01*
X0011600Y0133582D01*
X0010808Y0135494D01*
X0009346Y0136956D01*
X0007917Y0137548D01*
X0009346Y0138140D01*
X0010808Y0139602D01*
X0011600Y0141514D01*
X0011600Y0143582D01*
X0011237Y0144458D01*
X0015447Y0140248D01*
X0080315Y0140248D01*
X0080324Y0140226D01*
X0081478Y0139072D01*
X0082984Y0138448D01*
X0089816Y0138448D01*
X0091322Y0139072D01*
X0092476Y0140226D01*
X0093100Y0141732D01*
X0093100Y0143364D01*
X0092476Y0144870D01*
X0091322Y0146024D01*
X0089816Y0146648D01*
X0082984Y0146648D01*
X0081478Y0146024D01*
X0080324Y0144870D01*
X0080315Y0144848D01*
X0017353Y0144848D01*
X0011333Y0150868D01*
X0011600Y0151514D01*
X0011600Y0153582D01*
X0011237Y0154458D01*
X0014100Y0151595D01*
X0015447Y0150248D01*
X0080315Y0150248D01*
X0080324Y0150226D01*
X0081478Y0149072D01*
X0082984Y0148448D01*
X0089816Y0148448D01*
X0091322Y0149072D01*
X0092476Y0150226D01*
X0093100Y0151732D01*
X0093100Y0153364D01*
X0092476Y0154870D01*
X0091322Y0156024D01*
X0089816Y0156648D01*
X0082984Y0156648D01*
X0081478Y0156024D01*
X0080324Y0154870D01*
X0080315Y0154848D01*
X0017353Y0154848D01*
X0011333Y0160868D01*
X0011600Y0161514D01*
X0011600Y0163582D01*
X0010808Y0165494D01*
X0009346Y0166956D01*
X0007598Y0167680D01*
X0008319Y0167914D01*
X0009021Y0168272D01*
X0009657Y0168734D01*
X0010214Y0169291D01*
X0010676Y0169927D01*
X0011034Y0170629D01*
X0011277Y0171377D01*
X0011400Y0172155D01*
X0011400Y0172248D01*
X0006700Y0172248D01*
X0006700Y0172848D01*
X0011400Y0172848D01*
X0011400Y0172942D01*
X0011277Y0173719D01*
X0011034Y0174467D01*
X0010676Y0175169D01*
X0010214Y0175805D01*
X0009657Y0176362D01*
X0009021Y0176824D01*
X0008319Y0177182D01*
X0007598Y0177416D01*
X0009346Y0178140D01*
X0010808Y0179602D01*
X0011600Y0181514D01*
X0011600Y0183582D01*
X0010808Y0185494D01*
X0009346Y0186956D01*
X0009799Y0186503D02*
X0069100Y0186503D01*
X0069100Y0185904D02*
X0010398Y0185904D01*
X0010886Y0185306D02*
X0069100Y0185306D01*
X0069100Y0184707D02*
X0011134Y0184707D01*
X0011382Y0184109D02*
X0069028Y0184109D01*
X0068780Y0183510D02*
X0011600Y0183510D01*
X0011600Y0182912D02*
X0068611Y0182912D01*
X0068611Y0182313D02*
X0011600Y0182313D01*
X0011600Y0181715D02*
X0068726Y0181715D01*
X0068974Y0181116D02*
X0011435Y0181116D01*
X0011187Y0180518D02*
X0069486Y0180518D01*
X0070458Y0179919D02*
X0010940Y0179919D01*
X0010527Y0179321D02*
X0081229Y0179321D01*
X0081478Y0179072D02*
X0082984Y0178448D01*
X0089816Y0178448D01*
X0091322Y0179072D01*
X0092476Y0180226D01*
X0093100Y0181732D01*
X0093100Y0183364D01*
X0092476Y0184870D01*
X0091322Y0186024D01*
X0089816Y0186648D01*
X0082984Y0186648D01*
X0081478Y0186024D01*
X0080324Y0184870D01*
X0079700Y0183364D01*
X0079700Y0181732D01*
X0080324Y0180226D01*
X0081478Y0179072D01*
X0082322Y0178722D02*
X0009928Y0178722D01*
X0009307Y0178124D02*
X0196400Y0178124D01*
X0196400Y0178722D02*
X0133373Y0178722D01*
X0133098Y0178448D02*
X0135500Y0180850D01*
X0135500Y0184246D01*
X0133098Y0186648D01*
X0129702Y0186648D01*
X0127300Y0184246D01*
X0127300Y0180850D01*
X0129702Y0178448D01*
X0133098Y0178448D01*
X0133971Y0179321D02*
X0196400Y0179321D01*
X0196400Y0179919D02*
X0134570Y0179919D01*
X0135168Y0180518D02*
X0196400Y0180518D01*
X0196400Y0181116D02*
X0135500Y0181116D01*
X0135500Y0181715D02*
X0196400Y0181715D01*
X0196400Y0182313D02*
X0135500Y0182313D01*
X0135500Y0182912D02*
X0196400Y0182912D01*
X0196400Y0183510D02*
X0135500Y0183510D01*
X0135500Y0184109D02*
X0196400Y0184109D01*
X0196400Y0184707D02*
X0135039Y0184707D01*
X0134440Y0185306D02*
X0196400Y0185306D01*
X0196400Y0185904D02*
X0133842Y0185904D01*
X0133243Y0186503D02*
X0196400Y0186503D01*
X0196400Y0187101D02*
X0073700Y0187101D01*
X0073700Y0186503D02*
X0082634Y0186503D01*
X0081358Y0185904D02*
X0073700Y0185904D01*
X0073700Y0185306D02*
X0080760Y0185306D01*
X0080257Y0184707D02*
X0073700Y0184707D01*
X0073772Y0184109D02*
X0080009Y0184109D01*
X0079761Y0183510D02*
X0074020Y0183510D01*
X0074189Y0182912D02*
X0079700Y0182912D01*
X0079700Y0182313D02*
X0074189Y0182313D01*
X0074074Y0181715D02*
X0079707Y0181715D01*
X0079955Y0181116D02*
X0073826Y0181116D01*
X0073314Y0180518D02*
X0080203Y0180518D01*
X0080630Y0179919D02*
X0072342Y0179919D01*
X0080324Y0174870D02*
X0079700Y0173364D01*
X0079700Y0171732D01*
X0080324Y0170226D01*
X0081478Y0169072D01*
X0082984Y0168448D01*
X0089816Y0168448D01*
X0091322Y0169072D01*
X0092476Y0170226D01*
X0093100Y0171732D01*
X0093100Y0173364D01*
X0092476Y0174870D01*
X0091322Y0176024D01*
X0089816Y0176648D01*
X0082984Y0176648D01*
X0081478Y0176024D01*
X0080324Y0174870D01*
X0080184Y0174533D02*
X0011000Y0174533D01*
X0011207Y0173934D02*
X0079936Y0173934D01*
X0079700Y0173336D02*
X0011338Y0173336D01*
X0011397Y0172139D02*
X0079700Y0172139D01*
X0079700Y0172737D02*
X0006700Y0172737D01*
X0009691Y0176328D02*
X0082212Y0176328D01*
X0081183Y0175730D02*
X0010269Y0175730D01*
X0010695Y0175131D02*
X0080585Y0175131D01*
X0079780Y0171540D02*
X0011303Y0171540D01*
X0011135Y0170942D02*
X0080028Y0170942D01*
X0080275Y0170343D02*
X0010888Y0170343D01*
X0010544Y0169745D02*
X0080805Y0169745D01*
X0081404Y0169146D02*
X0010069Y0169146D01*
X0009400Y0168548D02*
X0082744Y0168548D01*
X0082984Y0166648D02*
X0081478Y0166024D01*
X0080324Y0164870D01*
X0079700Y0163364D01*
X0079700Y0161732D01*
X0080324Y0160226D01*
X0081478Y0159072D01*
X0082984Y0158448D01*
X0089816Y0158448D01*
X0091322Y0159072D01*
X0092476Y0160226D01*
X0093100Y0161732D01*
X0093100Y0163364D01*
X0092476Y0164870D01*
X0091322Y0166024D01*
X0089816Y0166648D01*
X0082984Y0166648D01*
X0081791Y0166154D02*
X0010148Y0166154D01*
X0009550Y0166752D02*
X0196400Y0166752D01*
X0196400Y0166154D02*
X0121009Y0166154D01*
X0121322Y0166024D02*
X0119816Y0166648D01*
X0112984Y0166648D01*
X0111478Y0166024D01*
X0110324Y0164870D01*
X0109700Y0163364D01*
X0109700Y0161732D01*
X0110324Y0160226D01*
X0111478Y0159072D01*
X0112984Y0158448D01*
X0119816Y0158448D01*
X0121322Y0159072D01*
X0122476Y0160226D01*
X0123100Y0161732D01*
X0123100Y0163364D01*
X0122476Y0164870D01*
X0121322Y0166024D01*
X0121791Y0165555D02*
X0196400Y0165555D01*
X0196400Y0164957D02*
X0122390Y0164957D01*
X0122688Y0164358D02*
X0196400Y0164358D01*
X0196400Y0163759D02*
X0122936Y0163759D01*
X0123100Y0163161D02*
X0196400Y0163161D01*
X0196400Y0162562D02*
X0123100Y0162562D01*
X0123100Y0161964D02*
X0196400Y0161964D01*
X0196400Y0161365D02*
X0122948Y0161365D01*
X0122700Y0160767D02*
X0196400Y0160767D01*
X0196400Y0160168D02*
X0122419Y0160168D01*
X0121820Y0159570D02*
X0196400Y0159570D01*
X0196400Y0158971D02*
X0121079Y0158971D01*
X0119986Y0156577D02*
X0196400Y0156577D01*
X0196400Y0155979D02*
X0121367Y0155979D01*
X0121322Y0156024D02*
X0119816Y0156648D01*
X0112984Y0156648D01*
X0111478Y0156024D01*
X0110324Y0154870D01*
X0109700Y0153364D01*
X0109700Y0151732D01*
X0110324Y0150226D01*
X0111478Y0149072D01*
X0112984Y0148448D01*
X0119816Y0148448D01*
X0121322Y0149072D01*
X0122476Y0150226D01*
X0123100Y0151732D01*
X0123100Y0153364D01*
X0122476Y0154870D01*
X0121322Y0156024D01*
X0121966Y0155380D02*
X0196400Y0155380D01*
X0196400Y0154782D02*
X0122513Y0154782D01*
X0122760Y0154183D02*
X0196400Y0154183D01*
X0196400Y0153585D02*
X0123008Y0153585D01*
X0123100Y0152986D02*
X0196400Y0152986D01*
X0196400Y0152388D02*
X0123100Y0152388D01*
X0123100Y0151789D02*
X0196400Y0151789D01*
X0196400Y0151191D02*
X0122876Y0151191D01*
X0122628Y0150592D02*
X0196400Y0150592D01*
X0196400Y0149994D02*
X0122244Y0149994D01*
X0121645Y0149395D02*
X0196400Y0149395D01*
X0196400Y0148797D02*
X0120657Y0148797D01*
X0119816Y0146648D02*
X0121322Y0146024D01*
X0122476Y0144870D01*
X0123100Y0143364D01*
X0123100Y0141732D01*
X0122476Y0140226D01*
X0121322Y0139072D01*
X0119816Y0138448D01*
X0112984Y0138448D01*
X0111478Y0139072D01*
X0110324Y0140226D01*
X0109700Y0141732D01*
X0109700Y0143364D01*
X0110324Y0144870D01*
X0111478Y0146024D01*
X0112984Y0146648D01*
X0119816Y0146648D01*
X0120408Y0146403D02*
X0190401Y0146403D01*
X0189802Y0145804D02*
X0121542Y0145804D01*
X0122141Y0145206D02*
X0189372Y0145206D01*
X0189124Y0144607D02*
X0122585Y0144607D01*
X0122833Y0144009D02*
X0188877Y0144009D01*
X0188700Y0143410D02*
X0123081Y0143410D01*
X0123100Y0142812D02*
X0188700Y0142812D01*
X0188700Y0142213D02*
X0123100Y0142213D01*
X0123051Y0141615D02*
X0188700Y0141615D01*
X0188906Y0141016D02*
X0122803Y0141016D01*
X0122555Y0140418D02*
X0189154Y0140418D01*
X0189402Y0139819D02*
X0122069Y0139819D01*
X0121471Y0139221D02*
X0189874Y0139221D01*
X0190472Y0138622D02*
X0120236Y0138622D01*
X0119816Y0136648D02*
X0121322Y0136024D01*
X0122476Y0134870D01*
X0123100Y0133364D01*
X0123100Y0131732D01*
X0122476Y0130226D01*
X0121322Y0129072D01*
X0119816Y0128448D01*
X0112984Y0128448D01*
X0111478Y0129072D01*
X0110324Y0130226D01*
X0109700Y0131732D01*
X0109700Y0133364D01*
X0110324Y0134870D01*
X0111478Y0136024D01*
X0112984Y0136648D01*
X0119816Y0136648D01*
X0120830Y0136228D02*
X0190226Y0136228D01*
X0190825Y0136826D02*
X0009475Y0136826D01*
X0010074Y0136228D02*
X0081970Y0136228D01*
X0081478Y0136024D02*
X0080324Y0134870D01*
X0079700Y0133364D01*
X0079700Y0131732D01*
X0080324Y0130226D01*
X0081478Y0129072D01*
X0082984Y0128448D01*
X0089816Y0128448D01*
X0091322Y0129072D01*
X0092476Y0130226D01*
X0093100Y0131732D01*
X0093100Y0133364D01*
X0092476Y0134870D01*
X0091322Y0136024D01*
X0089816Y0136648D01*
X0082984Y0136648D01*
X0081478Y0136024D01*
X0081083Y0135629D02*
X0010672Y0135629D01*
X0011000Y0135031D02*
X0080485Y0135031D01*
X0080143Y0134432D02*
X0011248Y0134432D01*
X0011496Y0133834D02*
X0079895Y0133834D01*
X0079700Y0133235D02*
X0011600Y0133235D01*
X0011600Y0132637D02*
X0079700Y0132637D01*
X0079700Y0132038D02*
X0011600Y0132038D01*
X0011569Y0131440D02*
X0079821Y0131440D01*
X0080069Y0130841D02*
X0011322Y0130841D01*
X0011074Y0130243D02*
X0080317Y0130243D01*
X0080905Y0129644D02*
X0010826Y0129644D01*
X0010252Y0129046D02*
X0081541Y0129046D01*
X0082984Y0126648D02*
X0081478Y0126024D01*
X0080324Y0124870D01*
X0079700Y0123364D01*
X0079700Y0121732D01*
X0080324Y0120226D01*
X0081478Y0119072D01*
X0082984Y0118448D01*
X0089816Y0118448D01*
X0091322Y0119072D01*
X0092476Y0120226D01*
X0093100Y0121732D01*
X0093100Y0123364D01*
X0092476Y0124870D01*
X0091322Y0126024D01*
X0089816Y0126648D01*
X0082984Y0126648D01*
X0081549Y0126053D02*
X0010249Y0126053D01*
X0010824Y0125455D02*
X0080908Y0125455D01*
X0080318Y0124856D02*
X0011072Y0124856D01*
X0011320Y0124258D02*
X0080070Y0124258D01*
X0079822Y0123659D02*
X0011568Y0123659D01*
X0011600Y0123061D02*
X0079700Y0123061D01*
X0079700Y0122462D02*
X0011600Y0122462D01*
X0011600Y0121864D02*
X0079700Y0121864D01*
X0079894Y0121265D02*
X0053198Y0121265D01*
X0053015Y0121448D02*
X0051700Y0121448D01*
X0051700Y0117848D01*
X0055300Y0117848D01*
X0055300Y0119163D01*
X0053015Y0121448D01*
X0053797Y0120667D02*
X0080141Y0120667D01*
X0080482Y0120068D02*
X0054395Y0120068D01*
X0054994Y0119470D02*
X0081080Y0119470D01*
X0081963Y0118871D02*
X0055300Y0118871D01*
X0055300Y0118273D02*
X0190821Y0118273D01*
X0190223Y0118871D02*
X0120837Y0118871D01*
X0121322Y0119072D02*
X0122476Y0120226D01*
X0123100Y0121732D01*
X0123100Y0123364D01*
X0122476Y0124870D01*
X0121322Y0126024D01*
X0119816Y0126648D01*
X0112984Y0126648D01*
X0111478Y0126024D01*
X0110324Y0124870D01*
X0109700Y0123364D01*
X0109700Y0121732D01*
X0110324Y0120226D01*
X0111478Y0119072D01*
X0112984Y0118448D01*
X0119816Y0118448D01*
X0121322Y0119072D01*
X0121720Y0119470D02*
X0189624Y0119470D01*
X0189299Y0120068D02*
X0122318Y0120068D01*
X0122659Y0120667D02*
X0189051Y0120667D01*
X0188803Y0121265D02*
X0122906Y0121265D01*
X0123100Y0121864D02*
X0188700Y0121864D01*
X0188700Y0122462D02*
X0123100Y0122462D01*
X0123100Y0123061D02*
X0188700Y0123061D01*
X0188732Y0123659D02*
X0122978Y0123659D01*
X0122730Y0124258D02*
X0188980Y0124258D01*
X0189228Y0124856D02*
X0122482Y0124856D01*
X0121892Y0125455D02*
X0189476Y0125455D01*
X0190051Y0126053D02*
X0121251Y0126053D01*
X0121259Y0129046D02*
X0190048Y0129046D01*
X0189474Y0129644D02*
X0121895Y0129644D01*
X0122483Y0130243D02*
X0189226Y0130243D01*
X0188978Y0130841D02*
X0122731Y0130841D01*
X0122979Y0131440D02*
X0188731Y0131440D01*
X0188700Y0132038D02*
X0123100Y0132038D01*
X0123100Y0132637D02*
X0188700Y0132637D01*
X0188700Y0133235D02*
X0123100Y0133235D01*
X0122905Y0133834D02*
X0188804Y0133834D01*
X0189052Y0134432D02*
X0122657Y0134432D01*
X0122315Y0135031D02*
X0189300Y0135031D01*
X0189628Y0135629D02*
X0121717Y0135629D01*
X0112564Y0138622D02*
X0090236Y0138622D01*
X0091471Y0139221D02*
X0111329Y0139221D01*
X0110731Y0139819D02*
X0092069Y0139819D01*
X0092555Y0140418D02*
X0110245Y0140418D01*
X0109997Y0141016D02*
X0092803Y0141016D01*
X0093051Y0141615D02*
X0109749Y0141615D01*
X0109700Y0142213D02*
X0093100Y0142213D01*
X0093100Y0142812D02*
X0109700Y0142812D01*
X0109719Y0143410D02*
X0093081Y0143410D01*
X0092833Y0144009D02*
X0109967Y0144009D01*
X0110215Y0144607D02*
X0092585Y0144607D01*
X0092141Y0145206D02*
X0110659Y0145206D01*
X0111258Y0145804D02*
X0091542Y0145804D01*
X0090408Y0146403D02*
X0112392Y0146403D01*
X0112143Y0148797D02*
X0090657Y0148797D01*
X0091645Y0149395D02*
X0111155Y0149395D01*
X0110556Y0149994D02*
X0092244Y0149994D01*
X0092628Y0150592D02*
X0110172Y0150592D01*
X0109924Y0151191D02*
X0092876Y0151191D01*
X0093100Y0151789D02*
X0109700Y0151789D01*
X0109700Y0152388D02*
X0093100Y0152388D01*
X0093100Y0152986D02*
X0109700Y0152986D01*
X0109792Y0153585D02*
X0093008Y0153585D01*
X0092760Y0154183D02*
X0110040Y0154183D01*
X0110287Y0154782D02*
X0092513Y0154782D01*
X0091966Y0155380D02*
X0110834Y0155380D01*
X0111433Y0155979D02*
X0091367Y0155979D01*
X0089986Y0156577D02*
X0112814Y0156577D01*
X0111721Y0158971D02*
X0091079Y0158971D01*
X0091820Y0159570D02*
X0110980Y0159570D01*
X0110381Y0160168D02*
X0092419Y0160168D01*
X0092700Y0160767D02*
X0110100Y0160767D01*
X0109852Y0161365D02*
X0092948Y0161365D01*
X0093100Y0161964D02*
X0109700Y0161964D01*
X0109700Y0162562D02*
X0093100Y0162562D01*
X0093100Y0163161D02*
X0109700Y0163161D01*
X0109864Y0163759D02*
X0092936Y0163759D01*
X0092688Y0164358D02*
X0110112Y0164358D01*
X0110410Y0164957D02*
X0092390Y0164957D01*
X0091791Y0165555D02*
X0111009Y0165555D01*
X0111791Y0166154D02*
X0091009Y0166154D01*
X0090056Y0168548D02*
X0196400Y0168548D01*
X0196400Y0169146D02*
X0133513Y0169146D01*
X0133015Y0168648D02*
X0135300Y0170933D01*
X0135300Y0172248D01*
X0131700Y0172248D01*
X0131700Y0168648D01*
X0133015Y0168648D01*
X0131700Y0169146D02*
X0131100Y0169146D01*
X0131100Y0168648D02*
X0131100Y0172248D01*
X0131700Y0172248D01*
X0131700Y0172848D01*
X0135300Y0172848D01*
X0135300Y0174163D01*
X0133015Y0176448D01*
X0131700Y0176448D01*
X0131700Y0172848D01*
X0131100Y0172848D01*
X0131100Y0172248D01*
X0127500Y0172248D01*
X0127500Y0170933D01*
X0129785Y0168648D01*
X0131100Y0168648D01*
X0131100Y0169745D02*
X0131700Y0169745D01*
X0131700Y0170343D02*
X0131100Y0170343D01*
X0131100Y0170942D02*
X0131700Y0170942D01*
X0131700Y0171540D02*
X0131100Y0171540D01*
X0131100Y0172139D02*
X0131700Y0172139D01*
X0131700Y0172737D02*
X0196400Y0172737D01*
X0196400Y0172139D02*
X0135300Y0172139D01*
X0135300Y0171540D02*
X0196400Y0171540D01*
X0196400Y0170942D02*
X0135300Y0170942D01*
X0134710Y0170343D02*
X0196400Y0170343D01*
X0196400Y0169745D02*
X0134112Y0169745D01*
X0135300Y0173336D02*
X0196400Y0173336D01*
X0196400Y0173934D02*
X0135300Y0173934D01*
X0134931Y0174533D02*
X0196400Y0174533D01*
X0196400Y0175131D02*
X0134332Y0175131D01*
X0133734Y0175730D02*
X0196400Y0175730D01*
X0196400Y0176328D02*
X0133135Y0176328D01*
X0131700Y0176328D02*
X0131100Y0176328D01*
X0131100Y0176448D02*
X0129785Y0176448D01*
X0127500Y0174163D01*
X0127500Y0172848D01*
X0131100Y0172848D01*
X0131100Y0176448D01*
X0131100Y0175730D02*
X0131700Y0175730D01*
X0131700Y0175131D02*
X0131100Y0175131D01*
X0131100Y0174533D02*
X0131700Y0174533D01*
X0131700Y0173934D02*
X0131100Y0173934D01*
X0131100Y0173336D02*
X0131700Y0173336D01*
X0131100Y0172737D02*
X0116700Y0172737D01*
X0116700Y0172848D02*
X0122900Y0172848D01*
X0122900Y0172932D01*
X0122750Y0173686D01*
X0122456Y0174395D01*
X0122029Y0175034D01*
X0121486Y0175577D01*
X0120847Y0176004D01*
X0120138Y0176298D01*
X0119384Y0176448D01*
X0116700Y0176448D01*
X0116700Y0172848D01*
X0116700Y0172248D01*
X0116700Y0168648D01*
X0119384Y0168648D01*
X0120138Y0168798D01*
X0120847Y0169092D01*
X0121486Y0169519D01*
X0122029Y0170062D01*
X0122456Y0170701D01*
X0122750Y0171410D01*
X0122900Y0172164D01*
X0122900Y0172248D01*
X0116700Y0172248D01*
X0116100Y0172248D01*
X0116100Y0168648D01*
X0113416Y0168648D01*
X0112662Y0168798D01*
X0111953Y0169092D01*
X0111314Y0169519D01*
X0110771Y0170062D01*
X0110344Y0170701D01*
X0110050Y0171410D01*
X0109900Y0172164D01*
X0109900Y0172248D01*
X0116100Y0172248D01*
X0116100Y0172848D01*
X0109900Y0172848D01*
X0109900Y0172932D01*
X0110050Y0173686D01*
X0110344Y0174395D01*
X0110771Y0175034D01*
X0111314Y0175577D01*
X0111953Y0176004D01*
X0112662Y0176298D01*
X0113416Y0176448D01*
X0116100Y0176448D01*
X0116100Y0172848D01*
X0116700Y0172848D01*
X0116700Y0173336D02*
X0116100Y0173336D01*
X0116100Y0173934D02*
X0116700Y0173934D01*
X0116700Y0174533D02*
X0116100Y0174533D01*
X0116100Y0175131D02*
X0116700Y0175131D01*
X0116700Y0175730D02*
X0116100Y0175730D01*
X0116100Y0176328D02*
X0116700Y0176328D01*
X0119986Y0176328D02*
X0129665Y0176328D01*
X0129066Y0175730D02*
X0121258Y0175730D01*
X0121932Y0175131D02*
X0128468Y0175131D01*
X0127869Y0174533D02*
X0122364Y0174533D01*
X0122647Y0173934D02*
X0127500Y0173934D01*
X0127500Y0173336D02*
X0122820Y0173336D01*
X0122895Y0172139D02*
X0127500Y0172139D01*
X0127500Y0171540D02*
X0122776Y0171540D01*
X0122556Y0170942D02*
X0127500Y0170942D01*
X0128089Y0170343D02*
X0122217Y0170343D01*
X0121712Y0169745D02*
X0128688Y0169745D01*
X0129287Y0169146D02*
X0120928Y0169146D01*
X0116700Y0169146D02*
X0116100Y0169146D01*
X0116100Y0169745D02*
X0116700Y0169745D01*
X0116700Y0170343D02*
X0116100Y0170343D01*
X0116100Y0170942D02*
X0116700Y0170942D01*
X0116700Y0171540D02*
X0116100Y0171540D01*
X0116100Y0172139D02*
X0116700Y0172139D01*
X0116100Y0172737D02*
X0093100Y0172737D01*
X0093100Y0172139D02*
X0109905Y0172139D01*
X0110024Y0171540D02*
X0093020Y0171540D01*
X0092772Y0170942D02*
X0110244Y0170942D01*
X0110583Y0170343D02*
X0092524Y0170343D01*
X0091995Y0169745D02*
X0111088Y0169745D01*
X0111872Y0169146D02*
X0091396Y0169146D01*
X0093100Y0173336D02*
X0109980Y0173336D01*
X0110153Y0173934D02*
X0092864Y0173934D01*
X0092616Y0174533D02*
X0110436Y0174533D01*
X0110868Y0175131D02*
X0092215Y0175131D01*
X0091617Y0175730D02*
X0111542Y0175730D01*
X0112814Y0176328D02*
X0090588Y0176328D01*
X0090478Y0178722D02*
X0112322Y0178722D01*
X0112984Y0178448D02*
X0119816Y0178448D01*
X0121322Y0179072D01*
X0122476Y0180226D01*
X0123100Y0181732D01*
X0123100Y0183364D01*
X0122476Y0184870D01*
X0121322Y0186024D01*
X0119816Y0186648D01*
X0112984Y0186648D01*
X0111478Y0186024D01*
X0110324Y0184870D01*
X0109700Y0183364D01*
X0109700Y0181732D01*
X0110324Y0180226D01*
X0111478Y0179072D01*
X0112984Y0178448D01*
X0111229Y0179321D02*
X0091571Y0179321D01*
X0092170Y0179919D02*
X0110630Y0179919D01*
X0110203Y0180518D02*
X0092597Y0180518D01*
X0092845Y0181116D02*
X0109955Y0181116D01*
X0109707Y0181715D02*
X0093093Y0181715D01*
X0093100Y0182313D02*
X0109700Y0182313D01*
X0109700Y0182912D02*
X0093100Y0182912D01*
X0093039Y0183510D02*
X0109761Y0183510D01*
X0110009Y0184109D02*
X0092791Y0184109D01*
X0092543Y0184707D02*
X0110257Y0184707D01*
X0110760Y0185306D02*
X0092040Y0185306D01*
X0091442Y0185904D02*
X0111358Y0185904D01*
X0112634Y0186503D02*
X0090166Y0186503D01*
X0094702Y0193448D02*
X0098098Y0193448D01*
X0100500Y0195850D01*
X0100500Y0199246D01*
X0098098Y0201648D01*
X0094702Y0201648D01*
X0092300Y0199246D01*
X0092300Y0195850D01*
X0094702Y0193448D01*
X0094465Y0193685D02*
X0073700Y0193685D01*
X0073700Y0193087D02*
X0196400Y0193087D01*
X0196400Y0193685D02*
X0098335Y0193685D01*
X0098934Y0194284D02*
X0196400Y0194284D01*
X0196400Y0194882D02*
X0099532Y0194882D01*
X0100131Y0195481D02*
X0196400Y0195481D01*
X0196400Y0196079D02*
X0100500Y0196079D01*
X0100500Y0196678D02*
X0196400Y0196678D01*
X0196400Y0197276D02*
X0100500Y0197276D01*
X0100500Y0197875D02*
X0196400Y0197875D01*
X0196400Y0198473D02*
X0100500Y0198473D01*
X0100500Y0199072D02*
X0196400Y0199072D01*
X0196400Y0199670D02*
X0100076Y0199670D01*
X0099478Y0200269D02*
X0196400Y0200269D01*
X0196400Y0200867D02*
X0098879Y0200867D01*
X0098281Y0201466D02*
X0196400Y0201466D01*
X0196400Y0202064D02*
X0002900Y0202064D01*
X0002900Y0201466D02*
X0054519Y0201466D01*
X0053921Y0200867D02*
X0002900Y0200867D01*
X0002900Y0200269D02*
X0053322Y0200269D01*
X0052724Y0199670D02*
X0002900Y0199670D01*
X0002900Y0199072D02*
X0052300Y0199072D01*
X0052300Y0198473D02*
X0002900Y0198473D01*
X0002900Y0197875D02*
X0052300Y0197875D01*
X0051377Y0193087D02*
X0069100Y0193087D01*
X0073700Y0192488D02*
X0196400Y0192488D01*
X0196400Y0191890D02*
X0073700Y0191890D01*
X0073700Y0191291D02*
X0196400Y0191291D01*
X0196400Y0190692D02*
X0073700Y0190692D01*
X0073700Y0190094D02*
X0196400Y0190094D01*
X0196400Y0189495D02*
X0073700Y0189495D01*
X0073700Y0188897D02*
X0196400Y0188897D01*
X0196400Y0188298D02*
X0073700Y0188298D01*
X0073700Y0187700D02*
X0196400Y0187700D01*
X0196400Y0177525D02*
X0007862Y0177525D01*
X0008820Y0176927D02*
X0196400Y0176927D01*
X0196400Y0167949D02*
X0008387Y0167949D01*
X0008394Y0167351D02*
X0196400Y0167351D01*
X0196400Y0158373D02*
X0013828Y0158373D01*
X0014426Y0157774D02*
X0196400Y0157774D01*
X0196400Y0157176D02*
X0015025Y0157176D01*
X0015623Y0156577D02*
X0082814Y0156577D01*
X0081433Y0155979D02*
X0016222Y0155979D01*
X0016820Y0155380D02*
X0080834Y0155380D01*
X0081721Y0158971D02*
X0013229Y0158971D01*
X0012631Y0159570D02*
X0080980Y0159570D01*
X0080381Y0160168D02*
X0012032Y0160168D01*
X0011434Y0160767D02*
X0080100Y0160767D01*
X0079852Y0161365D02*
X0011539Y0161365D01*
X0011600Y0161964D02*
X0079700Y0161964D01*
X0079700Y0162562D02*
X0011600Y0162562D01*
X0011600Y0163161D02*
X0079700Y0163161D01*
X0079864Y0163759D02*
X0011527Y0163759D01*
X0011279Y0164358D02*
X0080112Y0164358D01*
X0080410Y0164957D02*
X0011031Y0164957D01*
X0010747Y0165555D02*
X0081009Y0165555D01*
X0080556Y0149994D02*
X0012207Y0149994D01*
X0011608Y0150592D02*
X0015103Y0150592D01*
X0014505Y0151191D02*
X0011466Y0151191D01*
X0011600Y0151789D02*
X0013906Y0151789D01*
X0014100Y0151595D02*
X0014100Y0151595D01*
X0013308Y0152388D02*
X0011600Y0152388D01*
X0011600Y0152986D02*
X0012709Y0152986D01*
X0012111Y0153585D02*
X0011599Y0153585D01*
X0011512Y0154183D02*
X0011351Y0154183D01*
X0012805Y0149395D02*
X0081155Y0149395D01*
X0082143Y0148797D02*
X0013404Y0148797D01*
X0014003Y0148198D02*
X0196400Y0148198D01*
X0196400Y0147600D02*
X0195292Y0147600D01*
X0192508Y0147600D02*
X0014601Y0147600D01*
X0015200Y0147001D02*
X0191063Y0147001D01*
X0191235Y0138023D02*
X0009065Y0138023D01*
X0009828Y0138622D02*
X0082564Y0138622D01*
X0081329Y0139221D02*
X0010426Y0139221D01*
X0010898Y0139819D02*
X0080731Y0139819D01*
X0080659Y0145206D02*
X0016995Y0145206D01*
X0016397Y0145804D02*
X0081258Y0145804D01*
X0082392Y0146403D02*
X0015798Y0146403D01*
X0012285Y0143410D02*
X0011600Y0143410D01*
X0011600Y0142812D02*
X0012884Y0142812D01*
X0013482Y0142213D02*
X0011600Y0142213D01*
X0011600Y0141615D02*
X0014081Y0141615D01*
X0014679Y0141016D02*
X0011394Y0141016D01*
X0011146Y0140418D02*
X0015278Y0140418D01*
X0011687Y0144009D02*
X0011423Y0144009D01*
X0008214Y0137425D02*
X0192086Y0137425D01*
X0190647Y0128447D02*
X0009653Y0128447D01*
X0008643Y0127849D02*
X0191657Y0127849D01*
X0191664Y0127250D02*
X0008636Y0127250D01*
X0009650Y0126652D02*
X0190650Y0126652D01*
X0192078Y0117674D02*
X0067613Y0117674D01*
X0069058Y0117076D02*
X0191242Y0117076D01*
X0190475Y0116477D02*
X0120228Y0116477D01*
X0119816Y0116648D02*
X0121322Y0116024D01*
X0122476Y0114870D01*
X0123100Y0113364D01*
X0123100Y0111732D01*
X0122476Y0110226D01*
X0121322Y0109072D01*
X0119816Y0108448D01*
X0112984Y0108448D01*
X0111478Y0109072D01*
X0110324Y0110226D01*
X0109700Y0111732D01*
X0109700Y0113364D01*
X0110324Y0114870D01*
X0111478Y0116024D01*
X0112984Y0116648D01*
X0119816Y0116648D01*
X0121468Y0115879D02*
X0189877Y0115879D01*
X0189403Y0115280D02*
X0172612Y0115280D01*
X0172600Y0115292D02*
X0171575Y0115717D01*
X0170466Y0115717D01*
X0169441Y0115292D01*
X0168656Y0114507D01*
X0168231Y0113482D01*
X0168231Y0112373D01*
X0168656Y0111348D01*
X0168720Y0111283D01*
X0168720Y0109172D01*
X0167980Y0109912D01*
X0166955Y0110337D01*
X0165845Y0110337D01*
X0164820Y0109912D01*
X0164036Y0109128D01*
X0163611Y0108103D01*
X0163611Y0106993D01*
X0164036Y0105968D01*
X0164100Y0105904D01*
X0164100Y0063501D01*
X0145936Y0045337D01*
X0145845Y0045337D01*
X0144820Y0044912D01*
X0144036Y0044128D01*
X0143611Y0043103D01*
X0143611Y0041993D01*
X0144036Y0040968D01*
X0144820Y0040184D01*
X0145845Y0039759D01*
X0146955Y0039759D01*
X0147980Y0040184D01*
X0148764Y0040968D01*
X0149189Y0041993D01*
X0149189Y0042084D01*
X0168700Y0061595D01*
X0168700Y0105904D01*
X0168720Y0105924D01*
X0168720Y0034914D01*
X0167856Y0035272D01*
X0166235Y0035272D01*
X0166099Y0035216D01*
X0166047Y0035477D01*
X0165755Y0036183D01*
X0165331Y0036817D01*
X0164791Y0037357D01*
X0164157Y0037781D01*
X0163451Y0038073D01*
X0162703Y0038222D01*
X0162621Y0038222D01*
X0162621Y0034647D01*
X0162021Y0034647D01*
X0162021Y0034047D01*
X0158446Y0034047D01*
X0158446Y0033966D01*
X0158595Y0033217D01*
X0158887Y0032512D01*
X0159312Y0031877D01*
X0159850Y0031339D01*
X0158867Y0030356D01*
X0158246Y0028859D01*
X0158246Y0027237D01*
X0158867Y0025740D01*
X0159708Y0024898D01*
X0158867Y0024057D01*
X0158246Y0022559D01*
X0158246Y0020938D01*
X0158867Y0019441D01*
X0160013Y0018294D01*
X0161511Y0017674D01*
X0163132Y0017674D01*
X0164629Y0018294D01*
X0165776Y0019441D01*
X0166349Y0020824D01*
X0167856Y0020824D01*
X0169354Y0021444D01*
X0170500Y0022590D01*
X0171120Y0024088D01*
X0171120Y0025709D01*
X0170918Y0026197D01*
X0171973Y0027251D01*
X0173320Y0028599D01*
X0173320Y0111283D01*
X0173385Y0111348D01*
X0173809Y0112373D01*
X0173809Y0113482D01*
X0173385Y0114507D01*
X0172600Y0115292D01*
X0173211Y0114682D02*
X0189155Y0114682D01*
X0188907Y0114083D02*
X0173561Y0114083D01*
X0173809Y0113485D02*
X0188700Y0113485D01*
X0188700Y0112886D02*
X0173809Y0112886D01*
X0173774Y0112288D02*
X0188700Y0112288D01*
X0188700Y0111689D02*
X0173526Y0111689D01*
X0173320Y0111090D02*
X0188875Y0111090D01*
X0189123Y0110492D02*
X0173320Y0110492D01*
X0173320Y0109893D02*
X0189371Y0109893D01*
X0189799Y0109295D02*
X0173320Y0109295D01*
X0173320Y0108696D02*
X0190398Y0108696D01*
X0191055Y0108098D02*
X0173320Y0108098D01*
X0173320Y0107499D02*
X0192266Y0107499D01*
X0190899Y0106901D02*
X0173320Y0106901D01*
X0173320Y0106302D02*
X0190300Y0106302D01*
X0189702Y0105704D02*
X0173320Y0105704D01*
X0173320Y0105105D02*
X0189331Y0105105D01*
X0189083Y0104507D02*
X0173320Y0104507D01*
X0173320Y0103908D02*
X0188835Y0103908D01*
X0188700Y0103310D02*
X0173320Y0103310D01*
X0173320Y0102711D02*
X0188700Y0102711D01*
X0188700Y0102113D02*
X0173320Y0102113D01*
X0173320Y0100317D02*
X0189196Y0100317D01*
X0189443Y0099719D02*
X0173320Y0099719D01*
X0173320Y0099120D02*
X0189974Y0099120D01*
X0190572Y0098522D02*
X0173320Y0098522D01*
X0173320Y0097923D02*
X0191477Y0097923D01*
X0191844Y0097325D02*
X0173320Y0097325D01*
X0173320Y0096726D02*
X0190724Y0096726D01*
X0190126Y0096128D02*
X0173320Y0096128D01*
X0173320Y0095529D02*
X0189527Y0095529D01*
X0189258Y0094931D02*
X0173320Y0094931D01*
X0173320Y0094332D02*
X0189011Y0094332D01*
X0188763Y0093734D02*
X0173320Y0093734D01*
X0173320Y0093135D02*
X0188700Y0093135D01*
X0188700Y0092537D02*
X0173320Y0092537D01*
X0173320Y0091938D02*
X0188700Y0091938D01*
X0188772Y0091340D02*
X0173320Y0091340D01*
X0173320Y0090741D02*
X0189020Y0090741D01*
X0189268Y0090143D02*
X0173320Y0090143D01*
X0173320Y0089544D02*
X0189550Y0089544D01*
X0190149Y0088946D02*
X0173320Y0088946D01*
X0173320Y0088347D02*
X0190747Y0088347D01*
X0191899Y0087749D02*
X0173320Y0087749D01*
X0173320Y0087150D02*
X0191422Y0087150D01*
X0190550Y0086552D02*
X0173320Y0086552D01*
X0173320Y0085953D02*
X0189951Y0085953D01*
X0189434Y0085355D02*
X0173320Y0085355D01*
X0173320Y0084756D02*
X0189186Y0084756D01*
X0188938Y0084157D02*
X0173320Y0084157D01*
X0173320Y0083559D02*
X0188700Y0083559D01*
X0188700Y0082960D02*
X0173320Y0082960D01*
X0173320Y0082362D02*
X0188700Y0082362D01*
X0188700Y0081763D02*
X0173320Y0081763D01*
X0173320Y0081165D02*
X0188844Y0081165D01*
X0189092Y0080566D02*
X0173320Y0080566D01*
X0173320Y0079968D02*
X0189340Y0079968D01*
X0189725Y0079369D02*
X0173320Y0079369D01*
X0173320Y0078771D02*
X0190323Y0078771D01*
X0190922Y0078172D02*
X0173320Y0078172D01*
X0173320Y0077574D02*
X0192320Y0077574D01*
X0191576Y0076975D02*
X0173320Y0076975D01*
X0173320Y0076377D02*
X0190663Y0076377D01*
X0190067Y0075778D02*
X0173320Y0075778D01*
X0173320Y0075180D02*
X0189632Y0075180D01*
X0189324Y0074581D02*
X0173320Y0074581D01*
X0173320Y0073983D02*
X0189109Y0073983D01*
X0188970Y0073384D02*
X0173320Y0073384D01*
X0173320Y0072786D02*
X0193600Y0072786D01*
X0193600Y0072248D02*
X0188900Y0072248D01*
X0188900Y0072155D01*
X0189023Y0071377D01*
X0189266Y0070629D01*
X0189624Y0069927D01*
X0190086Y0069291D01*
X0190643Y0068734D01*
X0191279Y0068272D01*
X0191981Y0067914D01*
X0192729Y0067671D01*
X0193506Y0067548D01*
X0193600Y0067548D01*
X0193600Y0072248D01*
X0193600Y0072187D02*
X0194200Y0072187D01*
X0194200Y0071589D02*
X0193600Y0071589D01*
X0193600Y0070990D02*
X0194200Y0070990D01*
X0194200Y0070392D02*
X0193600Y0070392D01*
X0193600Y0069793D02*
X0194200Y0069793D01*
X0194200Y0069195D02*
X0193600Y0069195D01*
X0193600Y0068596D02*
X0194200Y0068596D01*
X0194200Y0067998D02*
X0193600Y0067998D01*
X0191817Y0067998D02*
X0173320Y0067998D01*
X0173320Y0068596D02*
X0190833Y0068596D01*
X0190182Y0069195D02*
X0173320Y0069195D01*
X0173320Y0069793D02*
X0189721Y0069793D01*
X0189387Y0070392D02*
X0173320Y0070392D01*
X0173320Y0070990D02*
X0189149Y0070990D01*
X0188990Y0071589D02*
X0173320Y0071589D01*
X0173320Y0072187D02*
X0188900Y0072187D01*
X0195983Y0067998D02*
X0196400Y0067998D01*
X0196400Y0067399D02*
X0173320Y0067399D01*
X0173320Y0066801D02*
X0196400Y0066801D01*
X0196400Y0066202D02*
X0173320Y0066202D01*
X0173320Y0065604D02*
X0196400Y0065604D01*
X0196400Y0065005D02*
X0173320Y0065005D01*
X0173320Y0064407D02*
X0196400Y0064407D01*
X0196400Y0063808D02*
X0173320Y0063808D01*
X0173320Y0063210D02*
X0196400Y0063210D01*
X0196400Y0062611D02*
X0173320Y0062611D01*
X0173320Y0062013D02*
X0196400Y0062013D01*
X0196400Y0061414D02*
X0173320Y0061414D01*
X0173320Y0060816D02*
X0196400Y0060816D01*
X0196400Y0060217D02*
X0173320Y0060217D01*
X0173320Y0059619D02*
X0196400Y0059619D01*
X0196400Y0059020D02*
X0173320Y0059020D01*
X0173320Y0058421D02*
X0196400Y0058421D01*
X0196400Y0057823D02*
X0173320Y0057823D01*
X0173320Y0057224D02*
X0196400Y0057224D01*
X0196400Y0056626D02*
X0173320Y0056626D01*
X0173320Y0056027D02*
X0196400Y0056027D01*
X0196400Y0055429D02*
X0173320Y0055429D01*
X0173320Y0054830D02*
X0196400Y0054830D01*
X0196400Y0054232D02*
X0173320Y0054232D01*
X0173320Y0053633D02*
X0196400Y0053633D01*
X0196400Y0053035D02*
X0173320Y0053035D01*
X0173320Y0052436D02*
X0196400Y0052436D01*
X0196400Y0051838D02*
X0173320Y0051838D01*
X0173320Y0051239D02*
X0196400Y0051239D01*
X0196400Y0050641D02*
X0173320Y0050641D01*
X0173320Y0050042D02*
X0196400Y0050042D01*
X0196400Y0049444D02*
X0184018Y0049444D01*
X0183814Y0049528D02*
X0180986Y0049528D01*
X0178372Y0048446D01*
X0176372Y0046446D01*
X0175290Y0043832D01*
X0175290Y0041004D01*
X0176372Y0038390D01*
X0178372Y0036390D01*
X0180986Y0035308D01*
X0183814Y0035308D01*
X0186428Y0036390D01*
X0188428Y0038390D01*
X0189510Y0041004D01*
X0189510Y0043832D01*
X0188428Y0046446D01*
X0186428Y0048446D01*
X0183814Y0049528D01*
X0185463Y0048845D02*
X0196400Y0048845D01*
X0196400Y0048247D02*
X0186627Y0048247D01*
X0187225Y0047648D02*
X0196400Y0047648D01*
X0196400Y0047050D02*
X0187824Y0047050D01*
X0188422Y0046451D02*
X0196400Y0046451D01*
X0196400Y0045853D02*
X0188673Y0045853D01*
X0188921Y0045254D02*
X0196400Y0045254D01*
X0196400Y0044656D02*
X0189169Y0044656D01*
X0189417Y0044057D02*
X0196400Y0044057D01*
X0196400Y0043459D02*
X0189510Y0043459D01*
X0189510Y0042860D02*
X0196400Y0042860D01*
X0196400Y0042262D02*
X0189510Y0042262D01*
X0189510Y0041663D02*
X0196400Y0041663D01*
X0196400Y0041065D02*
X0189510Y0041065D01*
X0189288Y0040466D02*
X0196400Y0040466D01*
X0196400Y0039868D02*
X0189040Y0039868D01*
X0188792Y0039269D02*
X0196400Y0039269D01*
X0196400Y0038671D02*
X0188544Y0038671D01*
X0188109Y0038072D02*
X0196400Y0038072D01*
X0196400Y0037474D02*
X0187511Y0037474D01*
X0186912Y0036875D02*
X0196400Y0036875D01*
X0196400Y0036277D02*
X0186153Y0036277D01*
X0184708Y0035678D02*
X0196400Y0035678D01*
X0196400Y0035080D02*
X0173320Y0035080D01*
X0173320Y0035678D02*
X0180092Y0035678D01*
X0178647Y0036277D02*
X0173320Y0036277D01*
X0173320Y0036875D02*
X0177888Y0036875D01*
X0177289Y0037474D02*
X0173320Y0037474D01*
X0173320Y0038072D02*
X0176691Y0038072D01*
X0176256Y0038671D02*
X0173320Y0038671D01*
X0173320Y0039269D02*
X0176008Y0039269D01*
X0175760Y0039868D02*
X0173320Y0039868D01*
X0173320Y0040466D02*
X0175512Y0040466D01*
X0175290Y0041065D02*
X0173320Y0041065D01*
X0173320Y0041663D02*
X0175290Y0041663D01*
X0175290Y0042262D02*
X0173320Y0042262D01*
X0173320Y0042860D02*
X0175290Y0042860D01*
X0175290Y0043459D02*
X0173320Y0043459D01*
X0173320Y0044057D02*
X0175383Y0044057D01*
X0175631Y0044656D02*
X0173320Y0044656D01*
X0173320Y0045254D02*
X0175879Y0045254D01*
X0176127Y0045853D02*
X0173320Y0045853D01*
X0173320Y0046451D02*
X0176378Y0046451D01*
X0176976Y0047050D02*
X0173320Y0047050D01*
X0173320Y0047648D02*
X0177575Y0047648D01*
X0178173Y0048247D02*
X0173320Y0048247D01*
X0173320Y0048845D02*
X0179337Y0048845D01*
X0180782Y0049444D02*
X0173320Y0049444D01*
X0168720Y0049444D02*
X0156548Y0049444D01*
X0155950Y0048845D02*
X0168720Y0048845D01*
X0168720Y0048247D02*
X0155351Y0048247D01*
X0154753Y0047648D02*
X0168720Y0047648D01*
X0168720Y0047050D02*
X0154154Y0047050D01*
X0153556Y0046451D02*
X0168720Y0046451D01*
X0168720Y0045853D02*
X0152957Y0045853D01*
X0152359Y0045254D02*
X0168720Y0045254D01*
X0168720Y0044656D02*
X0151760Y0044656D01*
X0151162Y0044057D02*
X0168720Y0044057D01*
X0168720Y0043459D02*
X0150563Y0043459D01*
X0149965Y0042860D02*
X0168720Y0042860D01*
X0168720Y0042262D02*
X0149366Y0042262D01*
X0149052Y0041663D02*
X0168720Y0041663D01*
X0168720Y0041065D02*
X0148804Y0041065D01*
X0148262Y0040466D02*
X0168720Y0040466D01*
X0168720Y0039868D02*
X0147217Y0039868D01*
X0145583Y0039868D02*
X0113700Y0039868D01*
X0113700Y0040466D02*
X0144538Y0040466D01*
X0143996Y0041065D02*
X0113700Y0041065D01*
X0113700Y0041663D02*
X0143748Y0041663D01*
X0143611Y0042262D02*
X0113700Y0042262D01*
X0113700Y0042860D02*
X0143611Y0042860D01*
X0143758Y0043459D02*
X0113700Y0043459D01*
X0113700Y0044057D02*
X0144006Y0044057D01*
X0144563Y0044656D02*
X0113700Y0044656D01*
X0113700Y0045254D02*
X0145645Y0045254D01*
X0146452Y0045853D02*
X0113700Y0045853D01*
X0113700Y0046451D02*
X0147051Y0046451D01*
X0147649Y0047050D02*
X0114154Y0047050D01*
X0113700Y0046595D02*
X0115553Y0048448D01*
X0119816Y0048448D01*
X0121322Y0049072D01*
X0122476Y0050226D01*
X0123100Y0051732D01*
X0123100Y0053364D01*
X0122476Y0054870D01*
X0121322Y0056024D01*
X0119816Y0056648D01*
X0112984Y0056648D01*
X0111478Y0056024D01*
X0110324Y0054870D01*
X0109700Y0053364D01*
X0109700Y0051732D01*
X0110324Y0050226D01*
X0110575Y0049975D01*
X0110447Y0049848D01*
X0109100Y0048501D01*
X0109100Y0031046D01*
X0107300Y0029246D01*
X0107300Y0025850D01*
X0109702Y0023448D01*
X0113098Y0023448D01*
X0115500Y0025850D01*
X0115500Y0029246D01*
X0113700Y0031046D01*
X0113700Y0046595D01*
X0114753Y0047648D02*
X0148248Y0047648D01*
X0148846Y0048247D02*
X0115351Y0048247D01*
X0110507Y0050042D02*
X0092293Y0050042D01*
X0092476Y0050226D02*
X0093100Y0051732D01*
X0093100Y0053364D01*
X0092476Y0054870D01*
X0091322Y0056024D01*
X0089816Y0056648D01*
X0082984Y0056648D01*
X0081478Y0056024D01*
X0080324Y0054870D01*
X0079700Y0053364D01*
X0079700Y0051732D01*
X0080324Y0050226D01*
X0081478Y0049072D01*
X0082984Y0048448D01*
X0089816Y0048448D01*
X0091322Y0049072D01*
X0092476Y0050226D01*
X0092648Y0050641D02*
X0110152Y0050641D01*
X0109904Y0051239D02*
X0092896Y0051239D01*
X0093100Y0051838D02*
X0109700Y0051838D01*
X0109700Y0052436D02*
X0093100Y0052436D01*
X0093100Y0053035D02*
X0109700Y0053035D01*
X0109812Y0053633D02*
X0092988Y0053633D01*
X0092740Y0054232D02*
X0110060Y0054232D01*
X0110308Y0054830D02*
X0092492Y0054830D01*
X0091917Y0055429D02*
X0110883Y0055429D01*
X0111486Y0056027D02*
X0091314Y0056027D01*
X0089869Y0056626D02*
X0112931Y0056626D01*
X0112984Y0058448D02*
X0111478Y0059072D01*
X0110324Y0060226D01*
X0109700Y0061732D01*
X0109700Y0063364D01*
X0110324Y0064870D01*
X0111478Y0066024D01*
X0112984Y0066648D01*
X0119816Y0066648D01*
X0121322Y0066024D01*
X0122476Y0064870D01*
X0123100Y0063364D01*
X0123100Y0061732D01*
X0122476Y0060226D01*
X0121322Y0059072D01*
X0119816Y0058448D01*
X0112984Y0058448D01*
X0111604Y0059020D02*
X0091196Y0059020D01*
X0091322Y0059072D02*
X0092476Y0060226D01*
X0093100Y0061732D01*
X0093100Y0063364D01*
X0092476Y0064870D01*
X0091322Y0066024D01*
X0089816Y0066648D01*
X0082984Y0066648D01*
X0081478Y0066024D01*
X0080324Y0064870D01*
X0079700Y0063364D01*
X0079700Y0061732D01*
X0080324Y0060226D01*
X0081478Y0059072D01*
X0082984Y0058448D01*
X0089816Y0058448D01*
X0091322Y0059072D01*
X0091869Y0059619D02*
X0110931Y0059619D01*
X0110333Y0060217D02*
X0092467Y0060217D01*
X0092720Y0060816D02*
X0110080Y0060816D01*
X0109832Y0061414D02*
X0092968Y0061414D01*
X0093100Y0062013D02*
X0109700Y0062013D01*
X0109700Y0062611D02*
X0093100Y0062611D01*
X0093100Y0063210D02*
X0109700Y0063210D01*
X0109884Y0063808D02*
X0092916Y0063808D01*
X0092668Y0064407D02*
X0110132Y0064407D01*
X0110459Y0065005D02*
X0092341Y0065005D01*
X0091743Y0065604D02*
X0111057Y0065604D01*
X0111908Y0066202D02*
X0090892Y0066202D01*
X0089816Y0068448D02*
X0091322Y0069072D01*
X0092476Y0070226D01*
X0093100Y0071732D01*
X0093100Y0073364D01*
X0092476Y0074870D01*
X0091322Y0076024D01*
X0089816Y0076648D01*
X0082984Y0076648D01*
X0081478Y0076024D01*
X0080324Y0074870D01*
X0080315Y0074848D01*
X0070447Y0074848D01*
X0060936Y0065337D01*
X0060845Y0065337D01*
X0059820Y0064912D01*
X0059036Y0064128D01*
X0058611Y0063103D01*
X0058611Y0061993D01*
X0059036Y0060968D01*
X0059820Y0060184D01*
X0060845Y0059759D01*
X0061955Y0059759D01*
X0062980Y0060184D01*
X0063764Y0060968D01*
X0064189Y0061993D01*
X0064189Y0062084D01*
X0072353Y0070248D01*
X0080315Y0070248D01*
X0080324Y0070226D01*
X0081478Y0069072D01*
X0082984Y0068448D01*
X0089816Y0068448D01*
X0090173Y0068596D02*
X0112627Y0068596D01*
X0112984Y0068448D02*
X0119816Y0068448D01*
X0121322Y0069072D01*
X0122476Y0070226D01*
X0123100Y0071732D01*
X0123100Y0073364D01*
X0122476Y0074870D01*
X0121322Y0076024D01*
X0119816Y0076648D01*
X0112984Y0076648D01*
X0111478Y0076024D01*
X0110324Y0074870D01*
X0109700Y0073364D01*
X0109700Y0071732D01*
X0110324Y0070226D01*
X0111478Y0069072D01*
X0112984Y0068448D01*
X0111355Y0069195D02*
X0091445Y0069195D01*
X0092043Y0069793D02*
X0110757Y0069793D01*
X0110255Y0070392D02*
X0092545Y0070392D01*
X0092793Y0070990D02*
X0110007Y0070990D01*
X0109760Y0071589D02*
X0093040Y0071589D01*
X0093100Y0072187D02*
X0109700Y0072187D01*
X0109700Y0072786D02*
X0093100Y0072786D01*
X0093091Y0073384D02*
X0109709Y0073384D01*
X0109956Y0073983D02*
X0092844Y0073983D01*
X0092596Y0074581D02*
X0110204Y0074581D01*
X0110634Y0075180D02*
X0092166Y0075180D01*
X0091568Y0075778D02*
X0111232Y0075778D01*
X0112330Y0076377D02*
X0090470Y0076377D01*
X0089816Y0078448D02*
X0091322Y0079072D01*
X0092476Y0080226D01*
X0093100Y0081732D01*
X0093100Y0083364D01*
X0092476Y0084870D01*
X0091322Y0086024D01*
X0089816Y0086648D01*
X0082984Y0086648D01*
X0081478Y0086024D01*
X0080324Y0084870D01*
X0079700Y0083364D01*
X0079700Y0081732D01*
X0080324Y0080226D01*
X0081478Y0079072D01*
X0082984Y0078448D01*
X0089816Y0078448D01*
X0090595Y0078771D02*
X0112205Y0078771D01*
X0111478Y0079072D02*
X0112984Y0078448D01*
X0119816Y0078448D01*
X0121322Y0079072D01*
X0122476Y0080226D01*
X0123100Y0081732D01*
X0123100Y0083364D01*
X0122476Y0084870D01*
X0121322Y0086024D01*
X0119816Y0086648D01*
X0112984Y0086648D01*
X0111478Y0086024D01*
X0110324Y0084870D01*
X0109700Y0083364D01*
X0109700Y0081732D01*
X0110324Y0080226D01*
X0111478Y0079072D01*
X0111180Y0079369D02*
X0091620Y0079369D01*
X0092218Y0079968D02*
X0110582Y0079968D01*
X0110183Y0080566D02*
X0092617Y0080566D01*
X0092865Y0081165D02*
X0109935Y0081165D01*
X0109700Y0081763D02*
X0093100Y0081763D01*
X0093100Y0082362D02*
X0109700Y0082362D01*
X0109700Y0082960D02*
X0093100Y0082960D01*
X0093019Y0083559D02*
X0109781Y0083559D01*
X0110029Y0084157D02*
X0092771Y0084157D01*
X0092523Y0084756D02*
X0110277Y0084756D01*
X0110808Y0085355D02*
X0091992Y0085355D01*
X0091393Y0085953D02*
X0111407Y0085953D01*
X0112752Y0086552D02*
X0090048Y0086552D01*
X0089816Y0088448D02*
X0091322Y0089072D01*
X0092476Y0090226D01*
X0093100Y0091732D01*
X0093100Y0093364D01*
X0092476Y0094870D01*
X0091322Y0096024D01*
X0089816Y0096648D01*
X0082984Y0096648D01*
X0081478Y0096024D01*
X0080324Y0094870D01*
X0079700Y0093364D01*
X0079700Y0091732D01*
X0080324Y0090226D01*
X0081478Y0089072D01*
X0082984Y0088448D01*
X0089816Y0088448D01*
X0091017Y0088946D02*
X0112306Y0088946D01*
X0111953Y0089092D02*
X0112662Y0088798D01*
X0113416Y0088648D01*
X0116100Y0088648D01*
X0116100Y0092248D01*
X0116700Y0092248D01*
X0116700Y0088648D01*
X0119384Y0088648D01*
X0120138Y0088798D01*
X0120847Y0089092D01*
X0121486Y0089519D01*
X0122029Y0090062D01*
X0122456Y0090701D01*
X0122750Y0091410D01*
X0122900Y0092164D01*
X0122900Y0092248D01*
X0116700Y0092248D01*
X0116700Y0092848D01*
X0122900Y0092848D01*
X0122900Y0092932D01*
X0122750Y0093686D01*
X0122456Y0094395D01*
X0122029Y0095034D01*
X0121486Y0095577D01*
X0120847Y0096004D01*
X0120138Y0096298D01*
X0119384Y0096448D01*
X0116700Y0096448D01*
X0116700Y0092848D01*
X0116100Y0092848D01*
X0116100Y0092248D01*
X0109900Y0092248D01*
X0109900Y0092164D01*
X0110050Y0091410D01*
X0110344Y0090701D01*
X0110771Y0090062D01*
X0111314Y0089519D01*
X0111953Y0089092D01*
X0111289Y0089544D02*
X0091794Y0089544D01*
X0092393Y0090143D02*
X0110717Y0090143D01*
X0110327Y0090741D02*
X0092689Y0090741D01*
X0092937Y0091340D02*
X0110079Y0091340D01*
X0109945Y0091938D02*
X0093100Y0091938D01*
X0093100Y0092537D02*
X0116100Y0092537D01*
X0116100Y0092848D02*
X0109900Y0092848D01*
X0109900Y0092932D01*
X0110050Y0093686D01*
X0110344Y0094395D01*
X0110771Y0095034D01*
X0111314Y0095577D01*
X0111953Y0096004D01*
X0112662Y0096298D01*
X0113416Y0096448D01*
X0116100Y0096448D01*
X0116100Y0092848D01*
X0116100Y0093135D02*
X0116700Y0093135D01*
X0116700Y0092537D02*
X0164100Y0092537D01*
X0164100Y0093135D02*
X0122860Y0093135D01*
X0122730Y0093734D02*
X0164100Y0093734D01*
X0164100Y0094332D02*
X0122482Y0094332D01*
X0122098Y0094931D02*
X0164100Y0094931D01*
X0164100Y0095529D02*
X0121534Y0095529D01*
X0120549Y0096128D02*
X0164100Y0096128D01*
X0164100Y0096726D02*
X0069576Y0096726D01*
X0070174Y0096128D02*
X0081728Y0096128D01*
X0080983Y0095529D02*
X0070773Y0095529D01*
X0071042Y0094931D02*
X0080384Y0094931D01*
X0080101Y0094332D02*
X0071289Y0094332D01*
X0071537Y0093734D02*
X0079853Y0093734D01*
X0079700Y0093135D02*
X0071600Y0093135D01*
X0071600Y0092537D02*
X0079700Y0092537D01*
X0079700Y0091938D02*
X0071600Y0091938D01*
X0071528Y0091340D02*
X0079863Y0091340D01*
X0080111Y0090741D02*
X0071280Y0090741D01*
X0071032Y0090143D02*
X0080407Y0090143D01*
X0081006Y0089544D02*
X0070750Y0089544D01*
X0070151Y0088946D02*
X0081783Y0088946D01*
X0082752Y0086552D02*
X0025649Y0086552D01*
X0025051Y0087150D02*
X0164100Y0087150D01*
X0164100Y0086552D02*
X0120048Y0086552D01*
X0121393Y0085953D02*
X0164100Y0085953D01*
X0164100Y0085355D02*
X0121992Y0085355D01*
X0122523Y0084756D02*
X0164100Y0084756D01*
X0164100Y0084157D02*
X0122771Y0084157D01*
X0123019Y0083559D02*
X0164100Y0083559D01*
X0164100Y0082960D02*
X0123100Y0082960D01*
X0123100Y0082362D02*
X0164100Y0082362D01*
X0164100Y0081763D02*
X0123100Y0081763D01*
X0122865Y0081165D02*
X0164100Y0081165D01*
X0164100Y0080566D02*
X0122617Y0080566D01*
X0122218Y0079968D02*
X0164100Y0079968D01*
X0164100Y0079369D02*
X0121620Y0079369D01*
X0120595Y0078771D02*
X0164100Y0078771D01*
X0164100Y0078172D02*
X0055500Y0078172D01*
X0055500Y0077574D02*
X0164100Y0077574D01*
X0164100Y0076975D02*
X0055500Y0076975D01*
X0055500Y0076377D02*
X0082330Y0076377D01*
X0081232Y0075778D02*
X0055429Y0075778D01*
X0055500Y0075850D02*
X0053700Y0074050D01*
X0053700Y0036595D01*
X0040500Y0023395D01*
X0040500Y0020850D01*
X0038098Y0018448D01*
X0034702Y0018448D01*
X0032300Y0020850D01*
X0032300Y0024246D01*
X0034702Y0026648D01*
X0037247Y0026648D01*
X0049100Y0038501D01*
X0049100Y0074050D01*
X0047300Y0075850D01*
X0047300Y0079246D01*
X0049702Y0081648D01*
X0053098Y0081648D01*
X0055500Y0079246D01*
X0055500Y0075850D01*
X0054830Y0075180D02*
X0080634Y0075180D01*
X0082205Y0078771D02*
X0055500Y0078771D01*
X0055377Y0079369D02*
X0081180Y0079369D01*
X0080582Y0079968D02*
X0054778Y0079968D01*
X0054180Y0080566D02*
X0080183Y0080566D01*
X0079935Y0081165D02*
X0053581Y0081165D01*
X0049219Y0081165D02*
X0043581Y0081165D01*
X0043098Y0081648D02*
X0039702Y0081648D01*
X0037300Y0079246D01*
X0037300Y0075850D01*
X0039100Y0074050D01*
X0039100Y0038501D01*
X0025447Y0024848D01*
X0019898Y0024848D01*
X0018098Y0026648D01*
X0014702Y0026648D01*
X0012300Y0024246D01*
X0012300Y0020850D01*
X0014702Y0018448D01*
X0018098Y0018448D01*
X0019898Y0020248D01*
X0027353Y0020248D01*
X0028700Y0021595D01*
X0043700Y0036595D01*
X0043700Y0074050D01*
X0045500Y0075850D01*
X0045500Y0079246D01*
X0043098Y0081648D01*
X0044180Y0080566D02*
X0048620Y0080566D01*
X0048022Y0079968D02*
X0044778Y0079968D01*
X0045377Y0079369D02*
X0047423Y0079369D01*
X0047300Y0078771D02*
X0045500Y0078771D01*
X0045500Y0078172D02*
X0047300Y0078172D01*
X0047300Y0077574D02*
X0045500Y0077574D01*
X0045500Y0076975D02*
X0047300Y0076975D01*
X0047300Y0076377D02*
X0045500Y0076377D01*
X0045429Y0075778D02*
X0047371Y0075778D01*
X0047970Y0075180D02*
X0044830Y0075180D01*
X0044232Y0074581D02*
X0048568Y0074581D01*
X0049100Y0073983D02*
X0043700Y0073983D01*
X0043700Y0073384D02*
X0049100Y0073384D01*
X0049100Y0072786D02*
X0043700Y0072786D01*
X0043700Y0072187D02*
X0049100Y0072187D01*
X0049100Y0071589D02*
X0043700Y0071589D01*
X0043700Y0070990D02*
X0049100Y0070990D01*
X0049100Y0070392D02*
X0043700Y0070392D01*
X0043700Y0069793D02*
X0049100Y0069793D01*
X0049100Y0069195D02*
X0043700Y0069195D01*
X0043700Y0068596D02*
X0049100Y0068596D01*
X0049100Y0067998D02*
X0043700Y0067998D01*
X0043700Y0067399D02*
X0049100Y0067399D01*
X0049100Y0066801D02*
X0043700Y0066801D01*
X0043700Y0066202D02*
X0049100Y0066202D01*
X0049100Y0065604D02*
X0043700Y0065604D01*
X0043700Y0065005D02*
X0049100Y0065005D01*
X0049100Y0064407D02*
X0043700Y0064407D01*
X0043700Y0063808D02*
X0049100Y0063808D01*
X0049100Y0063210D02*
X0043700Y0063210D01*
X0043700Y0062611D02*
X0049100Y0062611D01*
X0049100Y0062013D02*
X0043700Y0062013D01*
X0043700Y0061414D02*
X0049100Y0061414D01*
X0049100Y0060816D02*
X0043700Y0060816D01*
X0043700Y0060217D02*
X0049100Y0060217D01*
X0049100Y0059619D02*
X0043700Y0059619D01*
X0043700Y0059020D02*
X0049100Y0059020D01*
X0049100Y0058421D02*
X0043700Y0058421D01*
X0043700Y0057823D02*
X0049100Y0057823D01*
X0049100Y0057224D02*
X0043700Y0057224D01*
X0043700Y0056626D02*
X0049100Y0056626D01*
X0049100Y0056027D02*
X0043700Y0056027D01*
X0043700Y0055429D02*
X0049100Y0055429D01*
X0049100Y0054830D02*
X0043700Y0054830D01*
X0043700Y0054232D02*
X0049100Y0054232D01*
X0049100Y0053633D02*
X0043700Y0053633D01*
X0043700Y0053035D02*
X0049100Y0053035D01*
X0049100Y0052436D02*
X0043700Y0052436D01*
X0043700Y0051838D02*
X0049100Y0051838D01*
X0049100Y0051239D02*
X0043700Y0051239D01*
X0043700Y0050641D02*
X0049100Y0050641D01*
X0049100Y0050042D02*
X0043700Y0050042D01*
X0043700Y0049444D02*
X0049100Y0049444D01*
X0049100Y0048845D02*
X0043700Y0048845D01*
X0043700Y0048247D02*
X0049100Y0048247D01*
X0049100Y0047648D02*
X0043700Y0047648D01*
X0043700Y0047050D02*
X0049100Y0047050D01*
X0049100Y0046451D02*
X0043700Y0046451D01*
X0043700Y0045853D02*
X0049100Y0045853D01*
X0049100Y0045254D02*
X0043700Y0045254D01*
X0043700Y0044656D02*
X0049100Y0044656D01*
X0049100Y0044057D02*
X0043700Y0044057D01*
X0043700Y0043459D02*
X0049100Y0043459D01*
X0049100Y0042860D02*
X0043700Y0042860D01*
X0043700Y0042262D02*
X0049100Y0042262D01*
X0049100Y0041663D02*
X0043700Y0041663D01*
X0043700Y0041065D02*
X0049100Y0041065D01*
X0049100Y0040466D02*
X0043700Y0040466D01*
X0043700Y0039868D02*
X0049100Y0039868D01*
X0049100Y0039269D02*
X0043700Y0039269D01*
X0043700Y0038671D02*
X0049100Y0038671D01*
X0048671Y0038072D02*
X0043700Y0038072D01*
X0043700Y0037474D02*
X0048073Y0037474D01*
X0047474Y0036875D02*
X0043700Y0036875D01*
X0043381Y0036277D02*
X0046876Y0036277D01*
X0046277Y0035678D02*
X0042783Y0035678D01*
X0042184Y0035080D02*
X0045679Y0035080D01*
X0045080Y0034481D02*
X0041586Y0034481D01*
X0040987Y0033883D02*
X0044482Y0033883D01*
X0043883Y0033284D02*
X0040389Y0033284D01*
X0039790Y0032686D02*
X0043285Y0032686D01*
X0042686Y0032087D02*
X0039192Y0032087D01*
X0038593Y0031488D02*
X0042088Y0031488D01*
X0041489Y0030890D02*
X0037995Y0030890D01*
X0037396Y0030291D02*
X0040891Y0030291D01*
X0040292Y0029693D02*
X0036798Y0029693D01*
X0036199Y0029094D02*
X0039694Y0029094D01*
X0039095Y0028496D02*
X0035601Y0028496D01*
X0035002Y0027897D02*
X0038497Y0027897D01*
X0037898Y0027299D02*
X0034404Y0027299D01*
X0033805Y0026700D02*
X0037300Y0026700D01*
X0034156Y0026102D02*
X0033207Y0026102D01*
X0033557Y0025503D02*
X0032608Y0025503D01*
X0032959Y0024905D02*
X0032010Y0024905D01*
X0032360Y0024306D02*
X0031411Y0024306D01*
X0030812Y0023708D02*
X0032300Y0023708D01*
X0032300Y0023109D02*
X0030214Y0023109D01*
X0029615Y0022511D02*
X0032300Y0022511D01*
X0032300Y0021912D02*
X0029017Y0021912D01*
X0028418Y0021314D02*
X0032300Y0021314D01*
X0032434Y0020715D02*
X0027820Y0020715D01*
X0025504Y0024905D02*
X0019841Y0024905D01*
X0019243Y0025503D02*
X0026103Y0025503D01*
X0026701Y0026102D02*
X0018644Y0026102D01*
X0014156Y0026102D02*
X0002900Y0026102D01*
X0002900Y0026700D02*
X0027300Y0026700D01*
X0027898Y0027299D02*
X0002900Y0027299D01*
X0002900Y0027897D02*
X0028497Y0027897D01*
X0029095Y0028496D02*
X0002900Y0028496D01*
X0002900Y0029094D02*
X0029694Y0029094D01*
X0030292Y0029693D02*
X0002900Y0029693D01*
X0002900Y0030291D02*
X0030891Y0030291D01*
X0031489Y0030890D02*
X0002900Y0030890D01*
X0002900Y0031488D02*
X0032088Y0031488D01*
X0032686Y0032087D02*
X0002900Y0032087D01*
X0002900Y0032686D02*
X0033285Y0032686D01*
X0033883Y0033284D02*
X0002900Y0033284D01*
X0002900Y0033883D02*
X0034482Y0033883D01*
X0035080Y0034481D02*
X0002900Y0034481D01*
X0002900Y0035080D02*
X0035679Y0035080D01*
X0036277Y0035678D02*
X0002900Y0035678D01*
X0002900Y0036277D02*
X0036876Y0036277D01*
X0037474Y0036875D02*
X0002900Y0036875D01*
X0002900Y0037474D02*
X0038073Y0037474D01*
X0038671Y0038072D02*
X0002900Y0038072D01*
X0002900Y0038671D02*
X0039100Y0038671D01*
X0039100Y0039269D02*
X0002900Y0039269D01*
X0002900Y0039868D02*
X0039100Y0039868D01*
X0039100Y0040466D02*
X0002900Y0040466D01*
X0002900Y0041065D02*
X0039100Y0041065D01*
X0039100Y0041663D02*
X0002900Y0041663D01*
X0002900Y0042262D02*
X0039100Y0042262D01*
X0039100Y0042860D02*
X0002900Y0042860D01*
X0002900Y0043459D02*
X0039100Y0043459D01*
X0039100Y0044057D02*
X0002900Y0044057D01*
X0002900Y0044656D02*
X0039100Y0044656D01*
X0039100Y0045254D02*
X0002900Y0045254D01*
X0002900Y0045853D02*
X0039100Y0045853D01*
X0039100Y0046451D02*
X0002900Y0046451D01*
X0002900Y0047050D02*
X0039100Y0047050D01*
X0039100Y0047648D02*
X0033159Y0047648D01*
X0034453Y0048247D02*
X0039100Y0048247D01*
X0039100Y0048845D02*
X0035051Y0048845D01*
X0035650Y0049444D02*
X0039100Y0049444D01*
X0039100Y0050042D02*
X0035991Y0050042D01*
X0036238Y0050641D02*
X0039100Y0050641D01*
X0039100Y0051239D02*
X0036486Y0051239D01*
X0036600Y0051838D02*
X0039100Y0051838D01*
X0039100Y0052436D02*
X0036600Y0052436D01*
X0036600Y0053035D02*
X0039100Y0053035D01*
X0039100Y0053633D02*
X0036579Y0053633D01*
X0036331Y0054232D02*
X0039100Y0054232D01*
X0039100Y0054830D02*
X0036083Y0054830D01*
X0035835Y0055429D02*
X0039100Y0055429D01*
X0039100Y0056027D02*
X0035274Y0056027D01*
X0034676Y0056626D02*
X0039100Y0056626D01*
X0039100Y0057224D02*
X0033700Y0057224D01*
X0033700Y0057823D02*
X0039100Y0057823D01*
X0039100Y0058421D02*
X0033700Y0058421D01*
X0033700Y0059020D02*
X0039100Y0059020D01*
X0039100Y0059619D02*
X0033700Y0059619D01*
X0033700Y0060217D02*
X0039100Y0060217D01*
X0039100Y0060816D02*
X0033700Y0060816D01*
X0033700Y0061414D02*
X0039100Y0061414D01*
X0039100Y0062013D02*
X0033700Y0062013D01*
X0033700Y0062611D02*
X0039100Y0062611D01*
X0039100Y0063210D02*
X0033700Y0063210D01*
X0033700Y0063808D02*
X0039100Y0063808D01*
X0039100Y0064407D02*
X0033700Y0064407D01*
X0033700Y0065005D02*
X0039100Y0065005D01*
X0039100Y0065604D02*
X0033700Y0065604D01*
X0033700Y0066202D02*
X0039100Y0066202D01*
X0039100Y0066801D02*
X0033700Y0066801D01*
X0033700Y0067399D02*
X0039100Y0067399D01*
X0039100Y0067998D02*
X0033700Y0067998D01*
X0033700Y0068596D02*
X0039100Y0068596D01*
X0039100Y0069195D02*
X0033700Y0069195D01*
X0033700Y0069793D02*
X0039100Y0069793D01*
X0039100Y0070392D02*
X0033700Y0070392D01*
X0033700Y0070990D02*
X0039100Y0070990D01*
X0039100Y0071589D02*
X0033700Y0071589D01*
X0033700Y0072187D02*
X0039100Y0072187D01*
X0039100Y0072786D02*
X0033700Y0072786D01*
X0033700Y0073384D02*
X0039100Y0073384D01*
X0039100Y0073983D02*
X0033700Y0073983D01*
X0034232Y0074581D02*
X0038568Y0074581D01*
X0037970Y0075180D02*
X0034830Y0075180D01*
X0035429Y0075778D02*
X0037371Y0075778D01*
X0037300Y0076377D02*
X0035500Y0076377D01*
X0035500Y0076975D02*
X0037300Y0076975D01*
X0037300Y0077574D02*
X0035500Y0077574D01*
X0035500Y0078172D02*
X0037300Y0078172D01*
X0037300Y0078771D02*
X0035500Y0078771D01*
X0035377Y0079369D02*
X0037423Y0079369D01*
X0038022Y0079968D02*
X0034778Y0079968D01*
X0034180Y0080566D02*
X0038620Y0080566D01*
X0039219Y0081165D02*
X0033581Y0081165D01*
X0030437Y0081763D02*
X0079700Y0081763D01*
X0079700Y0082362D02*
X0029839Y0082362D01*
X0029240Y0082960D02*
X0079700Y0082960D01*
X0079781Y0083559D02*
X0028642Y0083559D01*
X0028043Y0084157D02*
X0080029Y0084157D01*
X0080277Y0084756D02*
X0027445Y0084756D01*
X0026846Y0085355D02*
X0080808Y0085355D01*
X0081407Y0085953D02*
X0026248Y0085953D01*
X0024452Y0087749D02*
X0064399Y0087749D01*
X0063247Y0088347D02*
X0023854Y0088347D01*
X0023255Y0088946D02*
X0062649Y0088946D01*
X0062050Y0089544D02*
X0022657Y0089544D01*
X0022058Y0090143D02*
X0061768Y0090143D01*
X0061520Y0090741D02*
X0021460Y0090741D01*
X0020861Y0091340D02*
X0061272Y0091340D01*
X0061200Y0091938D02*
X0020263Y0091938D01*
X0019664Y0092537D02*
X0061200Y0092537D01*
X0061200Y0093135D02*
X0019066Y0093135D01*
X0018467Y0093734D02*
X0061263Y0093734D01*
X0061511Y0094332D02*
X0017869Y0094332D01*
X0017270Y0094931D02*
X0061758Y0094931D01*
X0062027Y0095529D02*
X0016671Y0095529D01*
X0016073Y0096128D02*
X0062626Y0096128D01*
X0063224Y0096726D02*
X0015474Y0096726D01*
X0014876Y0097325D02*
X0064344Y0097325D01*
X0064463Y0097923D02*
X0014277Y0097923D01*
X0013679Y0098522D02*
X0063435Y0098522D01*
X0062757Y0099120D02*
X0013080Y0099120D01*
X0012482Y0099719D02*
X0062275Y0099719D01*
X0061925Y0100317D02*
X0011883Y0100317D01*
X0011600Y0102113D02*
X0061407Y0102113D01*
X0061458Y0103310D02*
X0011600Y0103310D01*
X0011600Y0102711D02*
X0066100Y0102711D01*
X0066700Y0102711D02*
X0079700Y0102711D01*
X0079700Y0102113D02*
X0071393Y0102113D01*
X0071299Y0101514D02*
X0079790Y0101514D01*
X0079700Y0101732D02*
X0080324Y0100226D01*
X0081478Y0099072D01*
X0082984Y0098448D01*
X0089816Y0098448D01*
X0091322Y0099072D01*
X0092476Y0100226D01*
X0093100Y0101732D01*
X0093100Y0103364D01*
X0092476Y0104870D01*
X0091322Y0106024D01*
X0089816Y0106648D01*
X0082984Y0106648D01*
X0081478Y0106024D01*
X0080324Y0104870D01*
X0079700Y0103364D01*
X0079700Y0101732D01*
X0080038Y0100916D02*
X0071127Y0100916D01*
X0070875Y0100317D02*
X0080286Y0100317D01*
X0080831Y0099719D02*
X0070525Y0099719D01*
X0070043Y0099120D02*
X0081429Y0099120D01*
X0082806Y0098522D02*
X0069365Y0098522D01*
X0068337Y0097923D02*
X0164100Y0097923D01*
X0164100Y0097325D02*
X0068456Y0097325D01*
X0071342Y0103310D02*
X0079700Y0103310D01*
X0079926Y0103908D02*
X0071215Y0103908D01*
X0071014Y0104507D02*
X0080174Y0104507D01*
X0080559Y0105105D02*
X0070709Y0105105D01*
X0070287Y0105704D02*
X0081158Y0105704D01*
X0082150Y0106302D02*
X0069717Y0106302D01*
X0068870Y0106901D02*
X0163649Y0106901D01*
X0163611Y0107499D02*
X0067800Y0107499D01*
X0069245Y0108098D02*
X0163611Y0108098D01*
X0163857Y0108696D02*
X0120415Y0108696D01*
X0121545Y0109295D02*
X0164203Y0109295D01*
X0164801Y0109893D02*
X0122144Y0109893D01*
X0122586Y0110492D02*
X0168720Y0110492D01*
X0168720Y0111090D02*
X0122834Y0111090D01*
X0123082Y0111689D02*
X0168515Y0111689D01*
X0168267Y0112288D02*
X0123100Y0112288D01*
X0123100Y0112886D02*
X0168231Y0112886D01*
X0168232Y0113485D02*
X0123050Y0113485D01*
X0122802Y0114083D02*
X0168480Y0114083D01*
X0168830Y0114682D02*
X0122554Y0114682D01*
X0122066Y0115280D02*
X0169429Y0115280D01*
X0168720Y0109893D02*
X0167999Y0109893D01*
X0168597Y0109295D02*
X0168720Y0109295D01*
X0168700Y0105704D02*
X0168720Y0105704D01*
X0168700Y0105105D02*
X0168720Y0105105D01*
X0168700Y0104507D02*
X0168720Y0104507D01*
X0168700Y0103908D02*
X0168720Y0103908D01*
X0168700Y0103310D02*
X0168720Y0103310D01*
X0168700Y0102711D02*
X0168720Y0102711D01*
X0168700Y0102113D02*
X0168720Y0102113D01*
X0168700Y0101514D02*
X0168720Y0101514D01*
X0168700Y0100916D02*
X0168720Y0100916D01*
X0168700Y0100317D02*
X0168720Y0100317D01*
X0168700Y0099719D02*
X0168720Y0099719D01*
X0168700Y0099120D02*
X0168720Y0099120D01*
X0168700Y0098522D02*
X0168720Y0098522D01*
X0168700Y0097923D02*
X0168720Y0097923D01*
X0168700Y0097325D02*
X0168720Y0097325D01*
X0168700Y0096726D02*
X0168720Y0096726D01*
X0168700Y0096128D02*
X0168720Y0096128D01*
X0168700Y0095529D02*
X0168720Y0095529D01*
X0168700Y0094931D02*
X0168720Y0094931D01*
X0168700Y0094332D02*
X0168720Y0094332D01*
X0168700Y0093734D02*
X0168720Y0093734D01*
X0168700Y0093135D02*
X0168720Y0093135D01*
X0168700Y0092537D02*
X0168720Y0092537D01*
X0168700Y0091938D02*
X0168720Y0091938D01*
X0168700Y0091340D02*
X0168720Y0091340D01*
X0168700Y0090741D02*
X0168720Y0090741D01*
X0168700Y0090143D02*
X0168720Y0090143D01*
X0168700Y0089544D02*
X0168720Y0089544D01*
X0168700Y0088946D02*
X0168720Y0088946D01*
X0168700Y0088347D02*
X0168720Y0088347D01*
X0168700Y0087749D02*
X0168720Y0087749D01*
X0168700Y0087150D02*
X0168720Y0087150D01*
X0168700Y0086552D02*
X0168720Y0086552D01*
X0168700Y0085953D02*
X0168720Y0085953D01*
X0168700Y0085355D02*
X0168720Y0085355D01*
X0168700Y0084756D02*
X0168720Y0084756D01*
X0168700Y0084157D02*
X0168720Y0084157D01*
X0168700Y0083559D02*
X0168720Y0083559D01*
X0168700Y0082960D02*
X0168720Y0082960D01*
X0168700Y0082362D02*
X0168720Y0082362D01*
X0168700Y0081763D02*
X0168720Y0081763D01*
X0168700Y0081165D02*
X0168720Y0081165D01*
X0168700Y0080566D02*
X0168720Y0080566D01*
X0168700Y0079968D02*
X0168720Y0079968D01*
X0168700Y0079369D02*
X0168720Y0079369D01*
X0168700Y0078771D02*
X0168720Y0078771D01*
X0168700Y0078172D02*
X0168720Y0078172D01*
X0168700Y0077574D02*
X0168720Y0077574D01*
X0168700Y0076975D02*
X0168720Y0076975D01*
X0168700Y0076377D02*
X0168720Y0076377D01*
X0168700Y0075778D02*
X0168720Y0075778D01*
X0168700Y0075180D02*
X0168720Y0075180D01*
X0168700Y0074581D02*
X0168720Y0074581D01*
X0168700Y0073983D02*
X0168720Y0073983D01*
X0168700Y0073384D02*
X0168720Y0073384D01*
X0168700Y0072786D02*
X0168720Y0072786D01*
X0168700Y0072187D02*
X0168720Y0072187D01*
X0168700Y0071589D02*
X0168720Y0071589D01*
X0168700Y0070990D02*
X0168720Y0070990D01*
X0168700Y0070392D02*
X0168720Y0070392D01*
X0168700Y0069793D02*
X0168720Y0069793D01*
X0168700Y0069195D02*
X0168720Y0069195D01*
X0168700Y0068596D02*
X0168720Y0068596D01*
X0168700Y0067998D02*
X0168720Y0067998D01*
X0168700Y0067399D02*
X0168720Y0067399D01*
X0168700Y0066801D02*
X0168720Y0066801D01*
X0168700Y0066202D02*
X0168720Y0066202D01*
X0168700Y0065604D02*
X0168720Y0065604D01*
X0168700Y0065005D02*
X0168720Y0065005D01*
X0168700Y0064407D02*
X0168720Y0064407D01*
X0168700Y0063808D02*
X0168720Y0063808D01*
X0168700Y0063210D02*
X0168720Y0063210D01*
X0168700Y0062611D02*
X0168720Y0062611D01*
X0168700Y0062013D02*
X0168720Y0062013D01*
X0168720Y0061414D02*
X0168519Y0061414D01*
X0168720Y0060816D02*
X0167920Y0060816D01*
X0167322Y0060217D02*
X0168720Y0060217D01*
X0168720Y0059619D02*
X0166723Y0059619D01*
X0166125Y0059020D02*
X0168720Y0059020D01*
X0168720Y0058421D02*
X0165526Y0058421D01*
X0164928Y0057823D02*
X0168720Y0057823D01*
X0168720Y0057224D02*
X0164329Y0057224D01*
X0163731Y0056626D02*
X0168720Y0056626D01*
X0168720Y0056027D02*
X0163132Y0056027D01*
X0162534Y0055429D02*
X0168720Y0055429D01*
X0168720Y0054830D02*
X0161935Y0054830D01*
X0161337Y0054232D02*
X0168720Y0054232D01*
X0168720Y0053633D02*
X0160738Y0053633D01*
X0160140Y0053035D02*
X0168720Y0053035D01*
X0168720Y0052436D02*
X0159541Y0052436D01*
X0158943Y0051838D02*
X0168720Y0051838D01*
X0168720Y0051239D02*
X0158344Y0051239D01*
X0157745Y0050641D02*
X0168720Y0050641D01*
X0168720Y0050042D02*
X0157147Y0050042D01*
X0153634Y0053035D02*
X0123100Y0053035D01*
X0123100Y0052436D02*
X0153036Y0052436D01*
X0152437Y0051838D02*
X0123100Y0051838D01*
X0122896Y0051239D02*
X0151839Y0051239D01*
X0151240Y0050641D02*
X0122648Y0050641D01*
X0122293Y0050042D02*
X0150642Y0050042D01*
X0150043Y0049444D02*
X0121694Y0049444D01*
X0120775Y0048845D02*
X0149445Y0048845D01*
X0154233Y0053633D02*
X0122988Y0053633D01*
X0122740Y0054232D02*
X0154831Y0054232D01*
X0155430Y0054830D02*
X0122492Y0054830D01*
X0121917Y0055429D02*
X0156028Y0055429D01*
X0156627Y0056027D02*
X0121314Y0056027D01*
X0119869Y0056626D02*
X0157225Y0056626D01*
X0157824Y0057224D02*
X0053700Y0057224D01*
X0053700Y0056626D02*
X0082931Y0056626D01*
X0081486Y0056027D02*
X0073436Y0056027D01*
X0073015Y0056448D02*
X0071700Y0056448D01*
X0071700Y0052848D01*
X0075300Y0052848D01*
X0075300Y0054163D01*
X0073015Y0056448D01*
X0071700Y0056027D02*
X0071100Y0056027D01*
X0071100Y0056448D02*
X0069785Y0056448D01*
X0067500Y0054163D01*
X0067500Y0052848D01*
X0071100Y0052848D01*
X0071100Y0052248D01*
X0071700Y0052248D01*
X0071700Y0048648D01*
X0073015Y0048648D01*
X0075300Y0050933D01*
X0075300Y0052248D01*
X0071700Y0052248D01*
X0071700Y0052848D01*
X0071100Y0052848D01*
X0071100Y0056448D01*
X0071100Y0055429D02*
X0071700Y0055429D01*
X0071700Y0054830D02*
X0071100Y0054830D01*
X0071100Y0054232D02*
X0071700Y0054232D01*
X0071700Y0053633D02*
X0071100Y0053633D01*
X0071100Y0053035D02*
X0071700Y0053035D01*
X0071700Y0052436D02*
X0079700Y0052436D01*
X0079700Y0051838D02*
X0075300Y0051838D01*
X0075300Y0051239D02*
X0079904Y0051239D01*
X0080152Y0050641D02*
X0075008Y0050641D01*
X0074410Y0050042D02*
X0080507Y0050042D01*
X0081106Y0049444D02*
X0073811Y0049444D01*
X0073213Y0048845D02*
X0082025Y0048845D01*
X0079700Y0053035D02*
X0075300Y0053035D01*
X0075300Y0053633D02*
X0079812Y0053633D01*
X0080060Y0054232D02*
X0075232Y0054232D01*
X0074633Y0054830D02*
X0080308Y0054830D01*
X0080883Y0055429D02*
X0074034Y0055429D01*
X0071100Y0052436D02*
X0053700Y0052436D01*
X0053700Y0051838D02*
X0067500Y0051838D01*
X0067500Y0052248D02*
X0067500Y0050933D01*
X0069785Y0048648D01*
X0071100Y0048648D01*
X0071100Y0052248D01*
X0067500Y0052248D01*
X0067500Y0053035D02*
X0053700Y0053035D01*
X0053700Y0053633D02*
X0067500Y0053633D01*
X0067568Y0054232D02*
X0053700Y0054232D01*
X0053700Y0054830D02*
X0068167Y0054830D01*
X0068765Y0055429D02*
X0053700Y0055429D01*
X0053700Y0056027D02*
X0069364Y0056027D01*
X0069702Y0058448D02*
X0073098Y0058448D01*
X0075500Y0060850D01*
X0075500Y0064246D01*
X0073098Y0066648D01*
X0069702Y0066648D01*
X0067300Y0064246D01*
X0067300Y0060850D01*
X0069702Y0058448D01*
X0069130Y0059020D02*
X0053700Y0059020D01*
X0053700Y0058421D02*
X0159021Y0058421D01*
X0158422Y0057823D02*
X0053700Y0057823D01*
X0053700Y0059619D02*
X0068531Y0059619D01*
X0067933Y0060217D02*
X0063013Y0060217D01*
X0063612Y0060816D02*
X0067334Y0060816D01*
X0067300Y0061414D02*
X0063949Y0061414D01*
X0064189Y0062013D02*
X0067300Y0062013D01*
X0067300Y0062611D02*
X0064716Y0062611D01*
X0065314Y0063210D02*
X0067300Y0063210D01*
X0067300Y0063808D02*
X0065913Y0063808D01*
X0066511Y0064407D02*
X0067460Y0064407D01*
X0067110Y0065005D02*
X0068059Y0065005D01*
X0067708Y0065604D02*
X0068657Y0065604D01*
X0068307Y0066202D02*
X0069256Y0066202D01*
X0068905Y0066801D02*
X0164100Y0066801D01*
X0164100Y0067399D02*
X0069504Y0067399D01*
X0070102Y0067998D02*
X0164100Y0067998D01*
X0164100Y0068596D02*
X0120173Y0068596D01*
X0121445Y0069195D02*
X0164100Y0069195D01*
X0164100Y0069793D02*
X0122043Y0069793D01*
X0122545Y0070392D02*
X0164100Y0070392D01*
X0164100Y0070990D02*
X0122793Y0070990D01*
X0123040Y0071589D02*
X0164100Y0071589D01*
X0164100Y0072187D02*
X0123100Y0072187D01*
X0123100Y0072786D02*
X0164100Y0072786D01*
X0164100Y0073384D02*
X0123091Y0073384D01*
X0122844Y0073983D02*
X0164100Y0073983D01*
X0164100Y0074581D02*
X0122596Y0074581D01*
X0122166Y0075180D02*
X0164100Y0075180D01*
X0164100Y0075778D02*
X0121568Y0075778D01*
X0120470Y0076377D02*
X0164100Y0076377D01*
X0164100Y0066202D02*
X0120892Y0066202D01*
X0121743Y0065604D02*
X0164100Y0065604D01*
X0164100Y0065005D02*
X0122341Y0065005D01*
X0122668Y0064407D02*
X0164100Y0064407D01*
X0164100Y0063808D02*
X0122916Y0063808D01*
X0123100Y0063210D02*
X0163809Y0063210D01*
X0163210Y0062611D02*
X0123100Y0062611D01*
X0123100Y0062013D02*
X0162612Y0062013D01*
X0162013Y0061414D02*
X0122968Y0061414D01*
X0122720Y0060816D02*
X0161415Y0060816D01*
X0160816Y0060217D02*
X0122467Y0060217D01*
X0121869Y0059619D02*
X0160218Y0059619D01*
X0159619Y0059020D02*
X0121196Y0059020D01*
X0110043Y0049444D02*
X0091694Y0049444D01*
X0090775Y0048845D02*
X0109445Y0048845D01*
X0109100Y0048247D02*
X0053700Y0048247D01*
X0053700Y0048845D02*
X0069587Y0048845D01*
X0068989Y0049444D02*
X0053700Y0049444D01*
X0053700Y0050042D02*
X0068390Y0050042D01*
X0067792Y0050641D02*
X0053700Y0050641D01*
X0053700Y0051239D02*
X0067500Y0051239D01*
X0071100Y0051239D02*
X0071700Y0051239D01*
X0071700Y0050641D02*
X0071100Y0050641D01*
X0071100Y0050042D02*
X0071700Y0050042D01*
X0071700Y0049444D02*
X0071100Y0049444D01*
X0071100Y0048845D02*
X0071700Y0048845D01*
X0071700Y0051838D02*
X0071100Y0051838D01*
X0073670Y0059020D02*
X0081604Y0059020D01*
X0080931Y0059619D02*
X0074269Y0059619D01*
X0074867Y0060217D02*
X0080333Y0060217D01*
X0080080Y0060816D02*
X0075466Y0060816D01*
X0075500Y0061414D02*
X0079832Y0061414D01*
X0079700Y0062013D02*
X0075500Y0062013D01*
X0075500Y0062611D02*
X0079700Y0062611D01*
X0079700Y0063210D02*
X0075500Y0063210D01*
X0075500Y0063808D02*
X0079884Y0063808D01*
X0080132Y0064407D02*
X0075340Y0064407D01*
X0074741Y0065005D02*
X0080459Y0065005D01*
X0081057Y0065604D02*
X0074143Y0065604D01*
X0073544Y0066202D02*
X0081908Y0066202D01*
X0082627Y0068596D02*
X0070701Y0068596D01*
X0071299Y0069195D02*
X0081355Y0069195D01*
X0080757Y0069793D02*
X0071898Y0069793D01*
X0068385Y0072786D02*
X0053700Y0072786D01*
X0053700Y0073384D02*
X0068984Y0073384D01*
X0069582Y0073983D02*
X0053700Y0073983D01*
X0054232Y0074581D02*
X0070181Y0074581D01*
X0067787Y0072187D02*
X0053700Y0072187D01*
X0053700Y0071589D02*
X0067188Y0071589D01*
X0066590Y0070990D02*
X0053700Y0070990D01*
X0053700Y0070392D02*
X0065991Y0070392D01*
X0065392Y0069793D02*
X0053700Y0069793D01*
X0053700Y0069195D02*
X0064794Y0069195D01*
X0064195Y0068596D02*
X0053700Y0068596D01*
X0053700Y0067998D02*
X0063597Y0067998D01*
X0062998Y0067399D02*
X0053700Y0067399D01*
X0053700Y0066801D02*
X0062400Y0066801D01*
X0061801Y0066202D02*
X0053700Y0066202D01*
X0053700Y0065604D02*
X0061203Y0065604D01*
X0060044Y0065005D02*
X0053700Y0065005D01*
X0053700Y0064407D02*
X0059314Y0064407D01*
X0058903Y0063808D02*
X0053700Y0063808D01*
X0053700Y0063210D02*
X0058655Y0063210D01*
X0058611Y0062611D02*
X0053700Y0062611D01*
X0053700Y0062013D02*
X0058611Y0062013D01*
X0058851Y0061414D02*
X0053700Y0061414D01*
X0053700Y0060816D02*
X0059188Y0060816D01*
X0059787Y0060217D02*
X0053700Y0060217D01*
X0053700Y0047648D02*
X0109100Y0047648D01*
X0109100Y0047050D02*
X0053700Y0047050D01*
X0053700Y0046451D02*
X0109100Y0046451D01*
X0109100Y0045853D02*
X0053700Y0045853D01*
X0053700Y0045254D02*
X0109100Y0045254D01*
X0109100Y0044656D02*
X0053700Y0044656D01*
X0053700Y0044057D02*
X0109100Y0044057D01*
X0109100Y0043459D02*
X0053700Y0043459D01*
X0053700Y0042860D02*
X0109100Y0042860D01*
X0109100Y0042262D02*
X0053700Y0042262D01*
X0053700Y0041663D02*
X0109100Y0041663D01*
X0109100Y0041065D02*
X0053700Y0041065D01*
X0053700Y0040466D02*
X0109100Y0040466D01*
X0109100Y0039868D02*
X0062096Y0039868D01*
X0062015Y0039948D02*
X0064300Y0037663D01*
X0064300Y0036348D01*
X0060700Y0036348D01*
X0060700Y0035748D01*
X0060700Y0032148D01*
X0062015Y0032148D01*
X0064300Y0034433D01*
X0064300Y0035748D01*
X0060700Y0035748D01*
X0060100Y0035748D01*
X0060100Y0032148D01*
X0058785Y0032148D01*
X0056500Y0034433D01*
X0056500Y0035748D01*
X0060100Y0035748D01*
X0060100Y0036348D01*
X0056500Y0036348D01*
X0056500Y0037663D01*
X0058785Y0039948D01*
X0060100Y0039948D01*
X0060100Y0036348D01*
X0060700Y0036348D01*
X0060700Y0039948D01*
X0062015Y0039948D01*
X0062694Y0039269D02*
X0109100Y0039269D01*
X0109100Y0038671D02*
X0063293Y0038671D01*
X0063891Y0038072D02*
X0109100Y0038072D01*
X0109100Y0037474D02*
X0064300Y0037474D01*
X0064300Y0036875D02*
X0109100Y0036875D01*
X0109100Y0036277D02*
X0060700Y0036277D01*
X0060700Y0036875D02*
X0060100Y0036875D01*
X0060100Y0036277D02*
X0053381Y0036277D01*
X0053700Y0036875D02*
X0056500Y0036875D01*
X0056500Y0037474D02*
X0053700Y0037474D01*
X0053700Y0038072D02*
X0056909Y0038072D01*
X0057507Y0038671D02*
X0053700Y0038671D01*
X0053700Y0039269D02*
X0058106Y0039269D01*
X0058704Y0039868D02*
X0053700Y0039868D01*
X0052783Y0035678D02*
X0056500Y0035678D01*
X0056500Y0035080D02*
X0052184Y0035080D01*
X0051586Y0034481D02*
X0056500Y0034481D01*
X0057050Y0033883D02*
X0050987Y0033883D01*
X0050389Y0033284D02*
X0057649Y0033284D01*
X0058247Y0032686D02*
X0049790Y0032686D01*
X0049192Y0032087D02*
X0109100Y0032087D01*
X0109100Y0032686D02*
X0062553Y0032686D01*
X0063151Y0033284D02*
X0109100Y0033284D01*
X0109100Y0033883D02*
X0063750Y0033883D01*
X0064300Y0034481D02*
X0109100Y0034481D01*
X0109100Y0035080D02*
X0064300Y0035080D01*
X0064300Y0035678D02*
X0109100Y0035678D01*
X0109100Y0031488D02*
X0048593Y0031488D01*
X0047995Y0030890D02*
X0074227Y0030890D01*
X0074785Y0031448D02*
X0072500Y0029163D01*
X0072500Y0027848D01*
X0076100Y0027848D01*
X0076100Y0027248D01*
X0076700Y0027248D01*
X0076700Y0023648D01*
X0078015Y0023648D01*
X0080300Y0025933D01*
X0080300Y0027248D01*
X0076700Y0027248D01*
X0076700Y0027848D01*
X0080300Y0027848D01*
X0080300Y0029163D01*
X0078015Y0031448D01*
X0076700Y0031448D01*
X0076700Y0027848D01*
X0076100Y0027848D01*
X0076100Y0031448D01*
X0074785Y0031448D01*
X0076100Y0030890D02*
X0076700Y0030890D01*
X0076700Y0030291D02*
X0076100Y0030291D01*
X0076100Y0029693D02*
X0076700Y0029693D01*
X0076700Y0029094D02*
X0076100Y0029094D01*
X0076100Y0028496D02*
X0076700Y0028496D01*
X0076700Y0027897D02*
X0076100Y0027897D01*
X0076100Y0027299D02*
X0044404Y0027299D01*
X0045002Y0027897D02*
X0072500Y0027897D01*
X0072500Y0028496D02*
X0045601Y0028496D01*
X0046199Y0029094D02*
X0072500Y0029094D01*
X0073030Y0029693D02*
X0046798Y0029693D01*
X0047396Y0030291D02*
X0073628Y0030291D01*
X0072500Y0027248D02*
X0072500Y0025933D01*
X0074785Y0023648D01*
X0076100Y0023648D01*
X0076100Y0027248D01*
X0072500Y0027248D01*
X0072500Y0026700D02*
X0043805Y0026700D01*
X0043207Y0026102D02*
X0072500Y0026102D01*
X0072929Y0025503D02*
X0042608Y0025503D01*
X0042010Y0024905D02*
X0073528Y0024905D01*
X0074126Y0024306D02*
X0041411Y0024306D01*
X0040812Y0023708D02*
X0074725Y0023708D01*
X0076100Y0023708D02*
X0076700Y0023708D01*
X0076700Y0024306D02*
X0076100Y0024306D01*
X0076100Y0024905D02*
X0076700Y0024905D01*
X0076700Y0025503D02*
X0076100Y0025503D01*
X0076100Y0026102D02*
X0076700Y0026102D01*
X0076700Y0026700D02*
X0076100Y0026700D01*
X0076700Y0027299D02*
X0091100Y0027299D01*
X0091100Y0027248D02*
X0087500Y0027248D01*
X0087500Y0025933D01*
X0089785Y0023648D01*
X0091100Y0023648D01*
X0091100Y0027248D01*
X0091700Y0027248D01*
X0091700Y0023648D01*
X0093015Y0023648D01*
X0095300Y0025933D01*
X0095300Y0027248D01*
X0091700Y0027248D01*
X0091700Y0027848D01*
X0095300Y0027848D01*
X0095300Y0029163D01*
X0093015Y0031448D01*
X0091700Y0031448D01*
X0091700Y0027848D01*
X0091100Y0027848D01*
X0091100Y0027248D01*
X0091100Y0026700D02*
X0091700Y0026700D01*
X0091700Y0026102D02*
X0091100Y0026102D01*
X0091100Y0025503D02*
X0091700Y0025503D01*
X0091700Y0024905D02*
X0091100Y0024905D01*
X0091100Y0024306D02*
X0091700Y0024306D01*
X0091700Y0023708D02*
X0091100Y0023708D01*
X0089725Y0023708D02*
X0078075Y0023708D01*
X0078674Y0024306D02*
X0089126Y0024306D01*
X0088528Y0024905D02*
X0079272Y0024905D01*
X0079871Y0025503D02*
X0087929Y0025503D01*
X0087500Y0026102D02*
X0080300Y0026102D01*
X0080300Y0026700D02*
X0087500Y0026700D01*
X0087500Y0027848D02*
X0091100Y0027848D01*
X0091100Y0031448D01*
X0089785Y0031448D01*
X0087500Y0029163D01*
X0087500Y0027848D01*
X0087500Y0027897D02*
X0080300Y0027897D01*
X0080300Y0028496D02*
X0087500Y0028496D01*
X0087500Y0029094D02*
X0080300Y0029094D01*
X0079770Y0029693D02*
X0088030Y0029693D01*
X0088628Y0030291D02*
X0079172Y0030291D01*
X0078573Y0030890D02*
X0089227Y0030890D01*
X0091100Y0030890D02*
X0091700Y0030890D01*
X0091700Y0030291D02*
X0091100Y0030291D01*
X0091100Y0029693D02*
X0091700Y0029693D01*
X0091700Y0029094D02*
X0091100Y0029094D01*
X0091100Y0028496D02*
X0091700Y0028496D01*
X0091700Y0027897D02*
X0091100Y0027897D01*
X0091700Y0027299D02*
X0107300Y0027299D01*
X0107300Y0027897D02*
X0095300Y0027897D01*
X0095300Y0028496D02*
X0107300Y0028496D01*
X0107300Y0029094D02*
X0095300Y0029094D01*
X0094770Y0029693D02*
X0107747Y0029693D01*
X0108345Y0030291D02*
X0094172Y0030291D01*
X0093573Y0030890D02*
X0108944Y0030890D01*
X0113700Y0031488D02*
X0159700Y0031488D01*
X0159401Y0030890D02*
X0113856Y0030890D01*
X0114455Y0030291D02*
X0158840Y0030291D01*
X0158592Y0029693D02*
X0115053Y0029693D01*
X0115500Y0029094D02*
X0158344Y0029094D01*
X0158246Y0028496D02*
X0115500Y0028496D01*
X0115500Y0027897D02*
X0158246Y0027897D01*
X0158246Y0027299D02*
X0115500Y0027299D01*
X0115500Y0026700D02*
X0158469Y0026700D01*
X0158717Y0026102D02*
X0115500Y0026102D01*
X0115154Y0025503D02*
X0159103Y0025503D01*
X0159702Y0024905D02*
X0114555Y0024905D01*
X0113957Y0024306D02*
X0159116Y0024306D01*
X0158722Y0023708D02*
X0113358Y0023708D01*
X0113015Y0021448D02*
X0111700Y0021448D01*
X0111700Y0017848D01*
X0115300Y0017848D01*
X0115300Y0019163D01*
X0113015Y0021448D01*
X0113150Y0021314D02*
X0118098Y0021314D01*
X0118121Y0021336D02*
X0116864Y0020079D01*
X0116183Y0018437D01*
X0116183Y0016659D01*
X0116864Y0015017D01*
X0118121Y0013760D01*
X0119763Y0013080D01*
X0121541Y0013080D01*
X0123183Y0013760D01*
X0124440Y0015017D01*
X0124802Y0015890D01*
X0125072Y0015240D01*
X0126218Y0014094D01*
X0127715Y0013473D01*
X0129337Y0013473D01*
X0130834Y0014094D01*
X0131980Y0015240D01*
X0132463Y0016405D01*
X0132946Y0015240D01*
X0134092Y0014094D01*
X0135589Y0013473D01*
X0137211Y0013473D01*
X0138708Y0014094D01*
X0139854Y0015240D01*
X0140337Y0016405D01*
X0140820Y0015240D01*
X0141966Y0014094D01*
X0143463Y0013473D01*
X0145085Y0013473D01*
X0146582Y0014094D01*
X0147728Y0015240D01*
X0147998Y0015890D01*
X0148360Y0015017D01*
X0149617Y0013760D01*
X0151259Y0013080D01*
X0153037Y0013080D01*
X0154679Y0013760D01*
X0155936Y0015017D01*
X0156617Y0016659D01*
X0156617Y0018437D01*
X0155936Y0020079D01*
X0154679Y0021336D01*
X0153037Y0022017D01*
X0151259Y0022017D01*
X0149617Y0021336D01*
X0148360Y0020079D01*
X0147998Y0019206D01*
X0147728Y0019856D01*
X0146582Y0021002D01*
X0145085Y0021623D01*
X0143463Y0021623D01*
X0141966Y0021002D01*
X0140820Y0019856D01*
X0140337Y0018691D01*
X0139854Y0019856D01*
X0138708Y0021002D01*
X0137211Y0021623D01*
X0135589Y0021623D01*
X0134092Y0021002D01*
X0132946Y0019856D01*
X0132463Y0018691D01*
X0131980Y0019856D01*
X0130834Y0021002D01*
X0129337Y0021623D01*
X0127715Y0021623D01*
X0126218Y0021002D01*
X0125072Y0019856D01*
X0124802Y0019206D01*
X0124440Y0020079D01*
X0123183Y0021336D01*
X0121541Y0022017D01*
X0119763Y0022017D01*
X0118121Y0021336D01*
X0117500Y0020715D02*
X0113748Y0020715D01*
X0114347Y0020117D02*
X0116901Y0020117D01*
X0116631Y0019518D02*
X0114945Y0019518D01*
X0115300Y0018920D02*
X0116383Y0018920D01*
X0116183Y0018321D02*
X0115300Y0018321D01*
X0116183Y0017723D02*
X0111700Y0017723D01*
X0111700Y0017848D02*
X0111700Y0017248D01*
X0111700Y0013648D01*
X0113015Y0013648D01*
X0115300Y0015933D01*
X0115300Y0017248D01*
X0111700Y0017248D01*
X0111100Y0017248D01*
X0111100Y0013648D01*
X0109785Y0013648D01*
X0107500Y0015933D01*
X0107500Y0017248D01*
X0111100Y0017248D01*
X0111100Y0017848D01*
X0107500Y0017848D01*
X0107500Y0019163D01*
X0109785Y0021448D01*
X0111100Y0021448D01*
X0111100Y0017848D01*
X0111700Y0017848D01*
X0111700Y0018321D02*
X0111100Y0018321D01*
X0111100Y0017723D02*
X0095500Y0017723D01*
X0095500Y0018321D02*
X0107500Y0018321D01*
X0107500Y0018920D02*
X0101070Y0018920D01*
X0100598Y0018448D02*
X0103000Y0020850D01*
X0103000Y0024246D01*
X0100598Y0026648D01*
X0097202Y0026648D01*
X0094800Y0024246D01*
X0094800Y0020850D01*
X0097202Y0018448D01*
X0100598Y0018448D01*
X0101668Y0019518D02*
X0107855Y0019518D01*
X0108453Y0020117D02*
X0102267Y0020117D01*
X0102866Y0020715D02*
X0109052Y0020715D01*
X0109650Y0021314D02*
X0103000Y0021314D01*
X0103000Y0021912D02*
X0119512Y0021912D01*
X0121792Y0021912D02*
X0151008Y0021912D01*
X0149594Y0021314D02*
X0145831Y0021314D01*
X0146869Y0020715D02*
X0148996Y0020715D01*
X0148397Y0020117D02*
X0147468Y0020117D01*
X0147868Y0019518D02*
X0148127Y0019518D01*
X0148231Y0015329D02*
X0147765Y0015329D01*
X0147219Y0014730D02*
X0148646Y0014730D01*
X0149245Y0014132D02*
X0146620Y0014132D01*
X0145229Y0013533D02*
X0150164Y0013533D01*
X0154132Y0013533D02*
X0175290Y0013533D01*
X0175290Y0012935D02*
X0063085Y0012935D01*
X0062722Y0012572D02*
X0063876Y0013726D01*
X0064500Y0015232D01*
X0064500Y0016864D01*
X0063876Y0018370D01*
X0062722Y0019524D01*
X0061216Y0020148D01*
X0059584Y0020148D01*
X0058078Y0019524D01*
X0056924Y0018370D01*
X0056300Y0016864D01*
X0056300Y0015232D01*
X0056924Y0013726D01*
X0058078Y0012572D01*
X0059584Y0011948D01*
X0061216Y0011948D01*
X0062722Y0012572D01*
X0062152Y0012336D02*
X0175290Y0012336D01*
X0175508Y0011738D02*
X0040500Y0011738D01*
X0040500Y0012336D02*
X0058648Y0012336D01*
X0057715Y0012935D02*
X0040500Y0012935D01*
X0040500Y0013533D02*
X0057117Y0013533D01*
X0056756Y0014132D02*
X0040500Y0014132D01*
X0040016Y0014730D02*
X0056508Y0014730D01*
X0056300Y0015329D02*
X0039418Y0015329D01*
X0038819Y0015927D02*
X0056300Y0015927D01*
X0056300Y0016526D02*
X0038221Y0016526D01*
X0038570Y0018920D02*
X0057473Y0018920D01*
X0056904Y0018321D02*
X0002900Y0018321D01*
X0002900Y0017723D02*
X0056656Y0017723D01*
X0056408Y0017124D02*
X0002900Y0017124D01*
X0002900Y0016526D02*
X0014579Y0016526D01*
X0013981Y0015927D02*
X0002900Y0015927D01*
X0002900Y0015329D02*
X0013382Y0015329D01*
X0012784Y0014730D02*
X0002900Y0014730D01*
X0002900Y0014132D02*
X0012300Y0014132D01*
X0012300Y0013533D02*
X0002900Y0013533D01*
X0002900Y0012935D02*
X0012300Y0012935D01*
X0012300Y0012336D02*
X0002900Y0012336D01*
X0002900Y0011738D02*
X0012300Y0011738D01*
X0012300Y0011139D02*
X0002900Y0011139D01*
X0002900Y0010541D02*
X0012609Y0010541D01*
X0013208Y0009942D02*
X0002900Y0009942D01*
X0002900Y0009344D02*
X0013806Y0009344D01*
X0018994Y0009344D02*
X0033806Y0009344D01*
X0033208Y0009942D02*
X0019592Y0009942D01*
X0020191Y0010541D02*
X0032609Y0010541D01*
X0032300Y0011139D02*
X0020500Y0011139D01*
X0020500Y0011738D02*
X0032300Y0011738D01*
X0032300Y0012336D02*
X0020500Y0012336D01*
X0020500Y0012935D02*
X0032300Y0012935D01*
X0032300Y0013533D02*
X0020500Y0013533D01*
X0020500Y0014132D02*
X0032300Y0014132D01*
X0032784Y0014730D02*
X0020016Y0014730D01*
X0019418Y0015329D02*
X0033382Y0015329D01*
X0033981Y0015927D02*
X0018819Y0015927D01*
X0018221Y0016526D02*
X0034579Y0016526D01*
X0034230Y0018920D02*
X0018570Y0018920D01*
X0019168Y0019518D02*
X0033631Y0019518D01*
X0033033Y0020117D02*
X0019767Y0020117D01*
X0014230Y0018920D02*
X0002900Y0018920D01*
X0002900Y0019518D02*
X0013631Y0019518D01*
X0013033Y0020117D02*
X0002900Y0020117D01*
X0002900Y0020715D02*
X0012434Y0020715D01*
X0012300Y0021314D02*
X0002900Y0021314D01*
X0002900Y0021912D02*
X0012300Y0021912D01*
X0012300Y0022511D02*
X0002900Y0022511D01*
X0002900Y0023109D02*
X0012300Y0023109D01*
X0012300Y0023708D02*
X0002900Y0023708D01*
X0002900Y0024306D02*
X0012360Y0024306D01*
X0012959Y0024905D02*
X0002900Y0024905D01*
X0002900Y0025503D02*
X0013557Y0025503D01*
X0011794Y0047548D02*
X0012571Y0047671D01*
X0013319Y0047914D01*
X0014021Y0048272D01*
X0014657Y0048734D01*
X0015214Y0049291D01*
X0015676Y0049927D01*
X0016034Y0050629D01*
X0016277Y0051377D01*
X0016400Y0052155D01*
X0016400Y0052248D01*
X0011700Y0052248D01*
X0011700Y0047548D01*
X0011794Y0047548D01*
X0011700Y0047648D02*
X0011100Y0047648D01*
X0011100Y0047548D02*
X0011100Y0052248D01*
X0011700Y0052248D01*
X0011700Y0052848D01*
X0016400Y0052848D01*
X0016400Y0052942D01*
X0016277Y0053719D01*
X0016034Y0054467D01*
X0015676Y0055169D01*
X0015214Y0055805D01*
X0014657Y0056362D01*
X0014021Y0056824D01*
X0013319Y0057182D01*
X0012571Y0057425D01*
X0011794Y0057548D01*
X0011700Y0057548D01*
X0011700Y0052848D01*
X0011100Y0052848D01*
X0011100Y0052248D01*
X0006400Y0052248D01*
X0006400Y0052155D01*
X0006523Y0051377D01*
X0006766Y0050629D01*
X0007124Y0049927D01*
X0007586Y0049291D01*
X0008143Y0048734D01*
X0008779Y0048272D01*
X0009481Y0047914D01*
X0010229Y0047671D01*
X0011006Y0047548D01*
X0011100Y0047548D01*
X0011100Y0048247D02*
X0011700Y0048247D01*
X0011700Y0048845D02*
X0011100Y0048845D01*
X0011100Y0049444D02*
X0011700Y0049444D01*
X0011700Y0050042D02*
X0011100Y0050042D01*
X0011100Y0050641D02*
X0011700Y0050641D01*
X0011700Y0051239D02*
X0011100Y0051239D01*
X0011100Y0051838D02*
X0011700Y0051838D01*
X0011700Y0052436D02*
X0026200Y0052436D01*
X0026200Y0051838D02*
X0016350Y0051838D01*
X0016232Y0051239D02*
X0026314Y0051239D01*
X0026562Y0050641D02*
X0016038Y0050641D01*
X0015735Y0050042D02*
X0026809Y0050042D01*
X0027150Y0049444D02*
X0015325Y0049444D01*
X0014768Y0048845D02*
X0027749Y0048845D01*
X0028347Y0048247D02*
X0013972Y0048247D01*
X0012427Y0047648D02*
X0029641Y0047648D01*
X0026200Y0053035D02*
X0016385Y0053035D01*
X0016290Y0053633D02*
X0026221Y0053633D01*
X0026469Y0054232D02*
X0016110Y0054232D01*
X0015849Y0054830D02*
X0026717Y0054830D01*
X0026965Y0055429D02*
X0015487Y0055429D01*
X0014992Y0056027D02*
X0027526Y0056027D01*
X0028124Y0056626D02*
X0014294Y0056626D01*
X0013188Y0057224D02*
X0029100Y0057224D01*
X0029100Y0057823D02*
X0002900Y0057823D01*
X0002900Y0058421D02*
X0029100Y0058421D01*
X0029100Y0059020D02*
X0002900Y0059020D01*
X0002900Y0059619D02*
X0029100Y0059619D01*
X0029100Y0060217D02*
X0023013Y0060217D01*
X0023612Y0060816D02*
X0029100Y0060816D01*
X0029100Y0061414D02*
X0023949Y0061414D01*
X0024189Y0062013D02*
X0029100Y0062013D01*
X0029100Y0062611D02*
X0024189Y0062611D01*
X0024145Y0063210D02*
X0029100Y0063210D01*
X0029100Y0063808D02*
X0023897Y0063808D01*
X0023700Y0064407D02*
X0029100Y0064407D01*
X0029100Y0065005D02*
X0023700Y0065005D01*
X0023700Y0065604D02*
X0029100Y0065604D01*
X0029100Y0066202D02*
X0023700Y0066202D01*
X0023700Y0066801D02*
X0029100Y0066801D01*
X0029100Y0067399D02*
X0023700Y0067399D01*
X0023700Y0067998D02*
X0029100Y0067998D01*
X0029100Y0068596D02*
X0023700Y0068596D01*
X0023700Y0069195D02*
X0029100Y0069195D01*
X0029100Y0069793D02*
X0023700Y0069793D01*
X0023700Y0070392D02*
X0029100Y0070392D01*
X0029100Y0070990D02*
X0023700Y0070990D01*
X0023700Y0071589D02*
X0029100Y0071589D01*
X0029100Y0072187D02*
X0023700Y0072187D01*
X0023700Y0072786D02*
X0029100Y0072786D01*
X0029100Y0073384D02*
X0023700Y0073384D01*
X0023700Y0073983D02*
X0029100Y0073983D01*
X0028568Y0074581D02*
X0023700Y0074581D01*
X0023700Y0075180D02*
X0027970Y0075180D01*
X0027371Y0075778D02*
X0023700Y0075778D01*
X0023700Y0076377D02*
X0027300Y0076377D01*
X0027300Y0076975D02*
X0023700Y0076975D01*
X0023700Y0077574D02*
X0027300Y0077574D01*
X0027300Y0078172D02*
X0023700Y0078172D01*
X0023430Y0078771D02*
X0026924Y0078771D01*
X0026326Y0079369D02*
X0022831Y0079369D01*
X0022233Y0079968D02*
X0025727Y0079968D01*
X0025129Y0080566D02*
X0021634Y0080566D01*
X0021036Y0081165D02*
X0024530Y0081165D01*
X0023932Y0081763D02*
X0020437Y0081763D01*
X0019839Y0082362D02*
X0023333Y0082362D01*
X0022735Y0082960D02*
X0019240Y0082960D01*
X0018642Y0083559D02*
X0022136Y0083559D01*
X0021538Y0084157D02*
X0018043Y0084157D01*
X0017445Y0084756D02*
X0020939Y0084756D01*
X0020341Y0085355D02*
X0016846Y0085355D01*
X0016248Y0085953D02*
X0019742Y0085953D01*
X0019144Y0086552D02*
X0015649Y0086552D01*
X0015051Y0087150D02*
X0018545Y0087150D01*
X0017947Y0087749D02*
X0014452Y0087749D01*
X0013854Y0088347D02*
X0017348Y0088347D01*
X0016750Y0088946D02*
X0013255Y0088946D01*
X0012657Y0089544D02*
X0016151Y0089544D01*
X0015553Y0090143D02*
X0012058Y0090143D01*
X0011460Y0090741D02*
X0014954Y0090741D01*
X0014356Y0091340D02*
X0011528Y0091340D01*
X0011600Y0091938D02*
X0013757Y0091938D01*
X0013159Y0092537D02*
X0011600Y0092537D01*
X0011600Y0093135D02*
X0012560Y0093135D01*
X0011962Y0093734D02*
X0011537Y0093734D01*
X0011363Y0094332D02*
X0011289Y0094332D01*
X0011465Y0103908D02*
X0061585Y0103908D01*
X0061786Y0104507D02*
X0011217Y0104507D01*
X0010969Y0105105D02*
X0062091Y0105105D01*
X0062513Y0105704D02*
X0010598Y0105704D01*
X0010000Y0106302D02*
X0063083Y0106302D01*
X0063930Y0106901D02*
X0009401Y0106901D01*
X0009245Y0108098D02*
X0063555Y0108098D01*
X0062898Y0108696D02*
X0009902Y0108696D01*
X0010501Y0109295D02*
X0062299Y0109295D01*
X0061871Y0109893D02*
X0010929Y0109893D01*
X0011177Y0110492D02*
X0061623Y0110492D01*
X0061375Y0111090D02*
X0011425Y0111090D01*
X0011600Y0111689D02*
X0061200Y0111689D01*
X0061200Y0112288D02*
X0011600Y0112288D01*
X0011600Y0112886D02*
X0061200Y0112886D01*
X0061200Y0113485D02*
X0033135Y0113485D01*
X0033098Y0113448D02*
X0035500Y0115850D01*
X0035500Y0119246D01*
X0033098Y0121648D01*
X0029702Y0121648D01*
X0027300Y0119246D01*
X0027300Y0115850D01*
X0029702Y0113448D01*
X0033098Y0113448D01*
X0033733Y0114083D02*
X0039350Y0114083D01*
X0039785Y0113648D02*
X0037500Y0115933D01*
X0037500Y0117248D01*
X0041100Y0117248D01*
X0041700Y0117248D01*
X0041700Y0113648D01*
X0043015Y0113648D01*
X0045300Y0115933D01*
X0045300Y0117248D01*
X0041700Y0117248D01*
X0041700Y0117848D01*
X0045300Y0117848D01*
X0045300Y0119163D01*
X0043015Y0121448D01*
X0041700Y0121448D01*
X0041700Y0117848D01*
X0041100Y0117848D01*
X0041100Y0117248D01*
X0041100Y0113648D01*
X0039785Y0113648D01*
X0041100Y0114083D02*
X0041700Y0114083D01*
X0041700Y0114682D02*
X0041100Y0114682D01*
X0041100Y0115280D02*
X0041700Y0115280D01*
X0041700Y0115879D02*
X0041100Y0115879D01*
X0041100Y0116477D02*
X0041700Y0116477D01*
X0041700Y0117076D02*
X0041100Y0117076D01*
X0041100Y0117674D02*
X0035500Y0117674D01*
X0035500Y0117076D02*
X0037500Y0117076D01*
X0037500Y0116477D02*
X0035500Y0116477D01*
X0035500Y0115879D02*
X0037554Y0115879D01*
X0038153Y0115280D02*
X0034930Y0115280D01*
X0034332Y0114682D02*
X0038751Y0114682D01*
X0037500Y0117848D02*
X0041100Y0117848D01*
X0041100Y0121448D01*
X0039785Y0121448D01*
X0037500Y0119163D01*
X0037500Y0117848D01*
X0037500Y0118273D02*
X0035500Y0118273D01*
X0035500Y0118871D02*
X0037500Y0118871D01*
X0037806Y0119470D02*
X0035277Y0119470D01*
X0034678Y0120068D02*
X0038405Y0120068D01*
X0039003Y0120667D02*
X0034080Y0120667D01*
X0033481Y0121265D02*
X0039602Y0121265D01*
X0041100Y0121265D02*
X0041700Y0121265D01*
X0041700Y0120667D02*
X0041100Y0120667D01*
X0041100Y0120068D02*
X0041700Y0120068D01*
X0041700Y0119470D02*
X0041100Y0119470D01*
X0041100Y0118871D02*
X0041700Y0118871D01*
X0041700Y0118273D02*
X0041100Y0118273D01*
X0041700Y0117674D02*
X0051100Y0117674D01*
X0051100Y0117848D02*
X0051100Y0117248D01*
X0051700Y0117248D01*
X0051700Y0113648D01*
X0053015Y0113648D01*
X0055300Y0115933D01*
X0055300Y0117248D01*
X0051700Y0117248D01*
X0051700Y0117848D01*
X0051100Y0117848D01*
X0047500Y0117848D01*
X0047500Y0119163D01*
X0049785Y0121448D01*
X0051100Y0121448D01*
X0051100Y0117848D01*
X0051100Y0118273D02*
X0051700Y0118273D01*
X0051700Y0118871D02*
X0051100Y0118871D01*
X0051100Y0119470D02*
X0051700Y0119470D01*
X0051700Y0120068D02*
X0051100Y0120068D01*
X0051100Y0120667D02*
X0051700Y0120667D01*
X0051700Y0121265D02*
X0051100Y0121265D01*
X0049602Y0121265D02*
X0043198Y0121265D01*
X0043797Y0120667D02*
X0049003Y0120667D01*
X0048405Y0120068D02*
X0044395Y0120068D01*
X0044994Y0119470D02*
X0047806Y0119470D01*
X0047500Y0118871D02*
X0045300Y0118871D01*
X0045300Y0118273D02*
X0047500Y0118273D01*
X0047500Y0117248D02*
X0047500Y0115933D01*
X0049785Y0113648D01*
X0051100Y0113648D01*
X0051100Y0117248D01*
X0047500Y0117248D01*
X0047500Y0117076D02*
X0045300Y0117076D01*
X0045300Y0116477D02*
X0047500Y0116477D01*
X0047554Y0115879D02*
X0045246Y0115879D01*
X0044647Y0115280D02*
X0048153Y0115280D01*
X0048751Y0114682D02*
X0044049Y0114682D01*
X0043450Y0114083D02*
X0049350Y0114083D01*
X0051100Y0114083D02*
X0051700Y0114083D01*
X0051700Y0114682D02*
X0051100Y0114682D01*
X0051100Y0115280D02*
X0051700Y0115280D01*
X0051700Y0115879D02*
X0051100Y0115879D01*
X0051100Y0116477D02*
X0051700Y0116477D01*
X0051700Y0117076D02*
X0051100Y0117076D01*
X0051700Y0117674D02*
X0065187Y0117674D01*
X0063742Y0117076D02*
X0055300Y0117076D01*
X0055300Y0116477D02*
X0062975Y0116477D01*
X0062377Y0115879D02*
X0055246Y0115879D01*
X0054647Y0115280D02*
X0061903Y0115280D01*
X0061655Y0114682D02*
X0054049Y0114682D01*
X0053450Y0114083D02*
X0061407Y0114083D01*
X0065000Y0107499D02*
X0008034Y0107499D01*
X0011600Y0113485D02*
X0029665Y0113485D01*
X0029067Y0114083D02*
X0011393Y0114083D01*
X0011145Y0114682D02*
X0028468Y0114682D01*
X0027870Y0115280D02*
X0010897Y0115280D01*
X0010423Y0115879D02*
X0027300Y0115879D01*
X0027300Y0116477D02*
X0009825Y0116477D01*
X0009058Y0117076D02*
X0027300Y0117076D01*
X0027300Y0117674D02*
X0008222Y0117674D01*
X0009479Y0118273D02*
X0027300Y0118273D01*
X0027300Y0118871D02*
X0010077Y0118871D01*
X0010676Y0119470D02*
X0027523Y0119470D01*
X0028122Y0120068D02*
X0011001Y0120068D01*
X0011249Y0120667D02*
X0028720Y0120667D01*
X0029319Y0121265D02*
X0011497Y0121265D01*
X0011362Y0084157D02*
X0011538Y0084157D01*
X0011600Y0083559D02*
X0012136Y0083559D01*
X0011600Y0082960D02*
X0012735Y0082960D01*
X0013333Y0082362D02*
X0011600Y0082362D01*
X0011600Y0081763D02*
X0013932Y0081763D01*
X0014530Y0081165D02*
X0011456Y0081165D01*
X0011208Y0080566D02*
X0015129Y0080566D01*
X0015727Y0079968D02*
X0010960Y0079968D01*
X0010575Y0079369D02*
X0016326Y0079369D01*
X0016924Y0078771D02*
X0009977Y0078771D01*
X0009378Y0078172D02*
X0017523Y0078172D01*
X0018121Y0077574D02*
X0007980Y0077574D01*
X0008724Y0076975D02*
X0018720Y0076975D01*
X0019100Y0076377D02*
X0009637Y0076377D01*
X0010233Y0075778D02*
X0019100Y0075778D01*
X0019100Y0075180D02*
X0010668Y0075180D01*
X0010976Y0074581D02*
X0019100Y0074581D01*
X0019100Y0073983D02*
X0011191Y0073983D01*
X0011330Y0073384D02*
X0019100Y0073384D01*
X0019100Y0072786D02*
X0006700Y0072786D01*
X0006700Y0072187D02*
X0006100Y0072187D01*
X0006100Y0071589D02*
X0006700Y0071589D01*
X0006700Y0070990D02*
X0006100Y0070990D01*
X0006100Y0070392D02*
X0006700Y0070392D01*
X0006700Y0069793D02*
X0006100Y0069793D01*
X0006100Y0069195D02*
X0006700Y0069195D01*
X0006700Y0068596D02*
X0006100Y0068596D01*
X0006100Y0067998D02*
X0006700Y0067998D01*
X0008483Y0067998D02*
X0019100Y0067998D01*
X0019100Y0068596D02*
X0009467Y0068596D01*
X0010118Y0069195D02*
X0019100Y0069195D01*
X0019100Y0069793D02*
X0010579Y0069793D01*
X0010913Y0070392D02*
X0019100Y0070392D01*
X0019100Y0070990D02*
X0011151Y0070990D01*
X0011310Y0071589D02*
X0019100Y0071589D01*
X0019100Y0072187D02*
X0011400Y0072187D01*
X0004317Y0067998D02*
X0002900Y0067998D01*
X0002900Y0068596D02*
X0003333Y0068596D01*
X0002900Y0067399D02*
X0019100Y0067399D01*
X0019100Y0066801D02*
X0002900Y0066801D01*
X0002900Y0066202D02*
X0019100Y0066202D01*
X0019100Y0065604D02*
X0002900Y0065604D01*
X0002900Y0065005D02*
X0019100Y0065005D01*
X0019100Y0064407D02*
X0002900Y0064407D01*
X0002900Y0063808D02*
X0018903Y0063808D01*
X0018655Y0063210D02*
X0002900Y0063210D01*
X0002900Y0062611D02*
X0018611Y0062611D01*
X0018611Y0062013D02*
X0002900Y0062013D01*
X0002900Y0061414D02*
X0018851Y0061414D01*
X0019188Y0060816D02*
X0002900Y0060816D01*
X0002900Y0060217D02*
X0019787Y0060217D01*
X0011700Y0057224D02*
X0011100Y0057224D01*
X0011100Y0057548D02*
X0011006Y0057548D01*
X0010229Y0057425D01*
X0009481Y0057182D01*
X0008779Y0056824D01*
X0008143Y0056362D01*
X0007586Y0055805D01*
X0007124Y0055169D01*
X0006766Y0054467D01*
X0006523Y0053719D01*
X0006400Y0052942D01*
X0006400Y0052848D01*
X0011100Y0052848D01*
X0011100Y0057548D01*
X0011100Y0056626D02*
X0011700Y0056626D01*
X0011700Y0056027D02*
X0011100Y0056027D01*
X0011100Y0055429D02*
X0011700Y0055429D01*
X0011700Y0054830D02*
X0011100Y0054830D01*
X0011100Y0054232D02*
X0011700Y0054232D01*
X0011700Y0053633D02*
X0011100Y0053633D01*
X0011100Y0053035D02*
X0011700Y0053035D01*
X0011100Y0052436D02*
X0002900Y0052436D01*
X0002900Y0051838D02*
X0006450Y0051838D01*
X0006568Y0051239D02*
X0002900Y0051239D01*
X0002900Y0050641D02*
X0006762Y0050641D01*
X0007065Y0050042D02*
X0002900Y0050042D01*
X0002900Y0049444D02*
X0007475Y0049444D01*
X0008032Y0048845D02*
X0002900Y0048845D01*
X0002900Y0048247D02*
X0008828Y0048247D01*
X0010373Y0047648D02*
X0002900Y0047648D01*
X0002900Y0053035D02*
X0006415Y0053035D01*
X0006510Y0053633D02*
X0002900Y0053633D01*
X0002900Y0054232D02*
X0006690Y0054232D01*
X0006951Y0054830D02*
X0002900Y0054830D01*
X0002900Y0055429D02*
X0007313Y0055429D01*
X0007808Y0056027D02*
X0002900Y0056027D01*
X0002900Y0056626D02*
X0008506Y0056626D01*
X0009612Y0057224D02*
X0002900Y0057224D01*
X0039767Y0020117D02*
X0059509Y0020117D01*
X0058072Y0019518D02*
X0039168Y0019518D01*
X0040366Y0020715D02*
X0073769Y0020715D01*
X0073170Y0020117D02*
X0061291Y0020117D01*
X0062728Y0019518D02*
X0072572Y0019518D01*
X0072300Y0019246D02*
X0072300Y0015850D01*
X0074702Y0013448D01*
X0078098Y0013448D01*
X0080500Y0015850D01*
X0080500Y0019246D01*
X0078098Y0021648D01*
X0074702Y0021648D01*
X0072300Y0019246D01*
X0072300Y0018920D02*
X0063327Y0018920D01*
X0063896Y0018321D02*
X0072300Y0018321D01*
X0072300Y0017723D02*
X0064144Y0017723D01*
X0064392Y0017124D02*
X0072300Y0017124D01*
X0072300Y0016526D02*
X0064500Y0016526D01*
X0064500Y0015927D02*
X0072300Y0015927D01*
X0072821Y0015329D02*
X0064500Y0015329D01*
X0064292Y0014730D02*
X0073420Y0014730D01*
X0074018Y0014132D02*
X0064044Y0014132D01*
X0063683Y0013533D02*
X0074617Y0013533D01*
X0078183Y0013533D02*
X0089617Y0013533D01*
X0089702Y0013448D02*
X0093098Y0013448D01*
X0095500Y0015850D01*
X0095500Y0019246D01*
X0093098Y0021648D01*
X0089702Y0021648D01*
X0087300Y0019246D01*
X0087300Y0015850D01*
X0089702Y0013448D01*
X0089018Y0014132D02*
X0078782Y0014132D01*
X0079380Y0014730D02*
X0088420Y0014730D01*
X0087821Y0015329D02*
X0079979Y0015329D01*
X0080500Y0015927D02*
X0087300Y0015927D01*
X0087300Y0016526D02*
X0080500Y0016526D01*
X0080500Y0017124D02*
X0087300Y0017124D01*
X0087300Y0017723D02*
X0080500Y0017723D01*
X0080500Y0018321D02*
X0087300Y0018321D01*
X0087300Y0018920D02*
X0080500Y0018920D01*
X0080228Y0019518D02*
X0087572Y0019518D01*
X0088170Y0020117D02*
X0079630Y0020117D01*
X0079031Y0020715D02*
X0088769Y0020715D01*
X0089367Y0021314D02*
X0078432Y0021314D01*
X0074367Y0021314D02*
X0040500Y0021314D01*
X0040500Y0021912D02*
X0094800Y0021912D01*
X0094800Y0021314D02*
X0093432Y0021314D01*
X0094031Y0020715D02*
X0094934Y0020715D01*
X0094630Y0020117D02*
X0095533Y0020117D01*
X0095228Y0019518D02*
X0096131Y0019518D01*
X0096730Y0018920D02*
X0095500Y0018920D01*
X0095500Y0017124D02*
X0107500Y0017124D01*
X0107500Y0016526D02*
X0095500Y0016526D01*
X0095500Y0015927D02*
X0107505Y0015927D01*
X0108104Y0015329D02*
X0094979Y0015329D01*
X0094380Y0014730D02*
X0108702Y0014730D01*
X0109301Y0014132D02*
X0093782Y0014132D01*
X0093183Y0013533D02*
X0118668Y0013533D01*
X0117749Y0014132D02*
X0113499Y0014132D01*
X0114098Y0014730D02*
X0117150Y0014730D01*
X0116735Y0015329D02*
X0114696Y0015329D01*
X0115295Y0015927D02*
X0116487Y0015927D01*
X0116239Y0016526D02*
X0115300Y0016526D01*
X0115300Y0017124D02*
X0116183Y0017124D01*
X0111700Y0017124D02*
X0111100Y0017124D01*
X0111100Y0016526D02*
X0111700Y0016526D01*
X0111700Y0015927D02*
X0111100Y0015927D01*
X0111100Y0015329D02*
X0111700Y0015329D01*
X0111700Y0014730D02*
X0111100Y0014730D01*
X0111100Y0014132D02*
X0111700Y0014132D01*
X0111700Y0018920D02*
X0111100Y0018920D01*
X0111100Y0019518D02*
X0111700Y0019518D01*
X0111700Y0020117D02*
X0111100Y0020117D01*
X0111100Y0020715D02*
X0111700Y0020715D01*
X0111700Y0021314D02*
X0111100Y0021314D01*
X0109442Y0023708D02*
X0103000Y0023708D01*
X0103000Y0023109D02*
X0158474Y0023109D01*
X0158246Y0022511D02*
X0103000Y0022511D01*
X0102940Y0024306D02*
X0108843Y0024306D01*
X0108245Y0024905D02*
X0102341Y0024905D01*
X0101743Y0025503D02*
X0107646Y0025503D01*
X0107300Y0026102D02*
X0101144Y0026102D01*
X0096656Y0026102D02*
X0095300Y0026102D01*
X0095300Y0026700D02*
X0107300Y0026700D01*
X0113700Y0032087D02*
X0159171Y0032087D01*
X0158816Y0032686D02*
X0113700Y0032686D01*
X0113700Y0033284D02*
X0158582Y0033284D01*
X0158463Y0033883D02*
X0113700Y0033883D01*
X0113700Y0034481D02*
X0162021Y0034481D01*
X0162021Y0034647D02*
X0158446Y0034647D01*
X0158446Y0034729D01*
X0158595Y0035477D01*
X0158887Y0036183D01*
X0159312Y0036817D01*
X0159851Y0037357D01*
X0160486Y0037781D01*
X0161191Y0038073D01*
X0161940Y0038222D01*
X0162021Y0038222D01*
X0162021Y0034647D01*
X0162021Y0035080D02*
X0162621Y0035080D01*
X0162621Y0035678D02*
X0162021Y0035678D01*
X0162021Y0036277D02*
X0162621Y0036277D01*
X0162621Y0036875D02*
X0162021Y0036875D01*
X0162021Y0037474D02*
X0162621Y0037474D01*
X0162621Y0038072D02*
X0162021Y0038072D01*
X0161189Y0038072D02*
X0113700Y0038072D01*
X0113700Y0037474D02*
X0160026Y0037474D01*
X0159369Y0036875D02*
X0113700Y0036875D01*
X0113700Y0036277D02*
X0158950Y0036277D01*
X0158678Y0035678D02*
X0113700Y0035678D01*
X0113700Y0035080D02*
X0158516Y0035080D01*
X0163454Y0038072D02*
X0168720Y0038072D01*
X0168720Y0037474D02*
X0164617Y0037474D01*
X0165273Y0036875D02*
X0168720Y0036875D01*
X0168720Y0036277D02*
X0165692Y0036277D01*
X0165964Y0035678D02*
X0168720Y0035678D01*
X0168720Y0035080D02*
X0168322Y0035080D01*
X0168720Y0038671D02*
X0113700Y0038671D01*
X0113700Y0039269D02*
X0168720Y0039269D01*
X0173320Y0034481D02*
X0196400Y0034481D01*
X0196400Y0033883D02*
X0173320Y0033883D01*
X0173320Y0033284D02*
X0196400Y0033284D01*
X0196400Y0032686D02*
X0173320Y0032686D01*
X0173320Y0032087D02*
X0196400Y0032087D01*
X0196400Y0031488D02*
X0173320Y0031488D01*
X0173320Y0030890D02*
X0196400Y0030890D01*
X0196400Y0030291D02*
X0173320Y0030291D01*
X0173320Y0029693D02*
X0196400Y0029693D01*
X0196400Y0029094D02*
X0173320Y0029094D01*
X0173218Y0028496D02*
X0196400Y0028496D01*
X0196400Y0027897D02*
X0172619Y0027897D01*
X0172021Y0027299D02*
X0196400Y0027299D01*
X0196400Y0026700D02*
X0171422Y0026700D01*
X0170958Y0026102D02*
X0196400Y0026102D01*
X0196400Y0025503D02*
X0171120Y0025503D01*
X0171120Y0024905D02*
X0196400Y0024905D01*
X0196400Y0024306D02*
X0171120Y0024306D01*
X0170963Y0023708D02*
X0196400Y0023708D01*
X0196400Y0023109D02*
X0170715Y0023109D01*
X0170421Y0022511D02*
X0196400Y0022511D01*
X0196400Y0021912D02*
X0169822Y0021912D01*
X0169040Y0021314D02*
X0196400Y0021314D01*
X0196400Y0020715D02*
X0183990Y0020715D01*
X0185435Y0020117D02*
X0196400Y0020117D01*
X0196400Y0019518D02*
X0186615Y0019518D01*
X0187214Y0018920D02*
X0196400Y0018920D01*
X0196400Y0018321D02*
X0187812Y0018321D01*
X0188411Y0017723D02*
X0196400Y0017723D01*
X0196400Y0017124D02*
X0188669Y0017124D01*
X0188916Y0016526D02*
X0196400Y0016526D01*
X0196400Y0015927D02*
X0189164Y0015927D01*
X0189412Y0015329D02*
X0196400Y0015329D01*
X0196400Y0014730D02*
X0189510Y0014730D01*
X0189510Y0014132D02*
X0196400Y0014132D01*
X0196400Y0013533D02*
X0189510Y0013533D01*
X0189510Y0012935D02*
X0196400Y0012935D01*
X0196400Y0012336D02*
X0189510Y0012336D01*
X0189292Y0011738D02*
X0196400Y0011738D01*
X0196400Y0011139D02*
X0189044Y0011139D01*
X0188797Y0010541D02*
X0196400Y0010541D01*
X0196400Y0009942D02*
X0188549Y0009942D01*
X0188121Y0009344D02*
X0196400Y0009344D01*
X0180810Y0020715D02*
X0166304Y0020715D01*
X0166056Y0020117D02*
X0179365Y0020117D01*
X0178185Y0019518D02*
X0165808Y0019518D01*
X0165255Y0018920D02*
X0177586Y0018920D01*
X0176988Y0018321D02*
X0164656Y0018321D01*
X0163249Y0017723D02*
X0176389Y0017723D01*
X0176131Y0017124D02*
X0156617Y0017124D01*
X0156617Y0017723D02*
X0161393Y0017723D01*
X0159986Y0018321D02*
X0156617Y0018321D01*
X0156417Y0018920D02*
X0159388Y0018920D01*
X0158835Y0019518D02*
X0156169Y0019518D01*
X0155899Y0020117D02*
X0158587Y0020117D01*
X0158339Y0020715D02*
X0155300Y0020715D01*
X0154702Y0021314D02*
X0158246Y0021314D01*
X0158246Y0021912D02*
X0153288Y0021912D01*
X0156561Y0016526D02*
X0175884Y0016526D01*
X0175636Y0015927D02*
X0156313Y0015927D01*
X0156065Y0015329D02*
X0175388Y0015329D01*
X0175290Y0014730D02*
X0155650Y0014730D01*
X0155051Y0014132D02*
X0175290Y0014132D01*
X0175756Y0011139D02*
X0040500Y0011139D01*
X0040191Y0010541D02*
X0176003Y0010541D01*
X0176251Y0009942D02*
X0039592Y0009942D01*
X0038994Y0009344D02*
X0176679Y0009344D01*
X0143319Y0013533D02*
X0137355Y0013533D01*
X0138746Y0014132D02*
X0141928Y0014132D01*
X0141329Y0014730D02*
X0139345Y0014730D01*
X0139891Y0015329D02*
X0140783Y0015329D01*
X0140535Y0015927D02*
X0140139Y0015927D01*
X0140242Y0018920D02*
X0140432Y0018920D01*
X0140680Y0019518D02*
X0139994Y0019518D01*
X0139594Y0020117D02*
X0141080Y0020117D01*
X0141679Y0020715D02*
X0138995Y0020715D01*
X0137957Y0021314D02*
X0142717Y0021314D01*
X0134843Y0021314D02*
X0130083Y0021314D01*
X0131121Y0020715D02*
X0133805Y0020715D01*
X0133206Y0020117D02*
X0131720Y0020117D01*
X0132120Y0019518D02*
X0132806Y0019518D01*
X0132558Y0018920D02*
X0132368Y0018920D01*
X0132265Y0015927D02*
X0132661Y0015927D01*
X0132909Y0015329D02*
X0132017Y0015329D01*
X0131471Y0014730D02*
X0133455Y0014730D01*
X0134054Y0014132D02*
X0130872Y0014132D01*
X0129481Y0013533D02*
X0135445Y0013533D01*
X0127571Y0013533D02*
X0122636Y0013533D01*
X0123555Y0014132D02*
X0126180Y0014132D01*
X0125581Y0014730D02*
X0124154Y0014730D01*
X0124569Y0015329D02*
X0125035Y0015329D01*
X0124932Y0019518D02*
X0124673Y0019518D01*
X0124403Y0020117D02*
X0125332Y0020117D01*
X0125931Y0020715D02*
X0123804Y0020715D01*
X0123206Y0021314D02*
X0126969Y0021314D01*
X0096057Y0025503D02*
X0094871Y0025503D01*
X0095459Y0024905D02*
X0094272Y0024905D01*
X0094860Y0024306D02*
X0093674Y0024306D01*
X0093075Y0023708D02*
X0094800Y0023708D01*
X0094800Y0023109D02*
X0040500Y0023109D01*
X0040500Y0022511D02*
X0094800Y0022511D01*
X0060700Y0032686D02*
X0060100Y0032686D01*
X0060100Y0033284D02*
X0060700Y0033284D01*
X0060700Y0033883D02*
X0060100Y0033883D01*
X0060100Y0034481D02*
X0060700Y0034481D01*
X0060700Y0035080D02*
X0060100Y0035080D01*
X0060100Y0035678D02*
X0060700Y0035678D01*
X0060700Y0037474D02*
X0060100Y0037474D01*
X0060100Y0038072D02*
X0060700Y0038072D01*
X0060700Y0038671D02*
X0060100Y0038671D01*
X0060100Y0039269D02*
X0060700Y0039269D01*
X0060700Y0039868D02*
X0060100Y0039868D01*
X0068401Y0087749D02*
X0164100Y0087749D01*
X0164100Y0088347D02*
X0069553Y0088347D01*
X0069902Y0108696D02*
X0083172Y0108696D01*
X0083416Y0108648D02*
X0086100Y0108648D01*
X0086100Y0112248D01*
X0086700Y0112248D01*
X0086700Y0108648D01*
X0089384Y0108648D01*
X0090138Y0108798D01*
X0090847Y0109092D01*
X0091486Y0109519D01*
X0092029Y0110062D01*
X0092456Y0110701D01*
X0092750Y0111410D01*
X0092900Y0112164D01*
X0092900Y0112248D01*
X0086700Y0112248D01*
X0086700Y0112848D01*
X0092900Y0112848D01*
X0092900Y0112932D01*
X0092750Y0113686D01*
X0092456Y0114395D01*
X0092029Y0115034D01*
X0091486Y0115577D01*
X0090847Y0116004D01*
X0090138Y0116298D01*
X0089384Y0116448D01*
X0086700Y0116448D01*
X0086700Y0112848D01*
X0086100Y0112848D01*
X0086100Y0112248D01*
X0079900Y0112248D01*
X0079900Y0112164D01*
X0080050Y0111410D01*
X0080344Y0110701D01*
X0080771Y0110062D01*
X0081314Y0109519D01*
X0081953Y0109092D01*
X0082662Y0108798D01*
X0083416Y0108648D01*
X0081649Y0109295D02*
X0070501Y0109295D01*
X0070929Y0109893D02*
X0080939Y0109893D01*
X0080483Y0110492D02*
X0071177Y0110492D01*
X0071425Y0111090D02*
X0080182Y0111090D01*
X0079994Y0111689D02*
X0071600Y0111689D01*
X0071600Y0112288D02*
X0086100Y0112288D01*
X0086100Y0112848D02*
X0079900Y0112848D01*
X0079900Y0112932D01*
X0080050Y0113686D01*
X0080344Y0114395D01*
X0080771Y0115034D01*
X0081314Y0115577D01*
X0081953Y0116004D01*
X0082662Y0116298D01*
X0083416Y0116448D01*
X0086100Y0116448D01*
X0086100Y0112848D01*
X0086100Y0112886D02*
X0086700Y0112886D01*
X0086700Y0112288D02*
X0109700Y0112288D01*
X0109700Y0112886D02*
X0092900Y0112886D01*
X0092790Y0113485D02*
X0109750Y0113485D01*
X0109998Y0114083D02*
X0092585Y0114083D01*
X0092265Y0114682D02*
X0110246Y0114682D01*
X0110734Y0115280D02*
X0091783Y0115280D01*
X0091035Y0115879D02*
X0111332Y0115879D01*
X0112572Y0116477D02*
X0069825Y0116477D01*
X0070423Y0115879D02*
X0081765Y0115879D01*
X0081017Y0115280D02*
X0070897Y0115280D01*
X0071145Y0114682D02*
X0080535Y0114682D01*
X0080215Y0114083D02*
X0071393Y0114083D01*
X0071600Y0113485D02*
X0080010Y0113485D01*
X0079900Y0112886D02*
X0071600Y0112886D01*
X0086100Y0113485D02*
X0086700Y0113485D01*
X0086700Y0114083D02*
X0086100Y0114083D01*
X0086100Y0114682D02*
X0086700Y0114682D01*
X0086700Y0115280D02*
X0086100Y0115280D01*
X0086100Y0115879D02*
X0086700Y0115879D01*
X0086700Y0111689D02*
X0086100Y0111689D01*
X0086100Y0111090D02*
X0086700Y0111090D01*
X0086700Y0110492D02*
X0086100Y0110492D01*
X0086100Y0109893D02*
X0086700Y0109893D01*
X0086700Y0109295D02*
X0086100Y0109295D01*
X0086100Y0108696D02*
X0086700Y0108696D01*
X0089627Y0108696D02*
X0112385Y0108696D01*
X0111255Y0109295D02*
X0091151Y0109295D01*
X0091861Y0109893D02*
X0110656Y0109893D01*
X0110214Y0110492D02*
X0092317Y0110492D01*
X0092618Y0111090D02*
X0109966Y0111090D01*
X0109718Y0111689D02*
X0092806Y0111689D01*
X0090650Y0106302D02*
X0112150Y0106302D01*
X0111478Y0106024D02*
X0110324Y0104870D01*
X0109700Y0103364D01*
X0109700Y0101732D01*
X0110324Y0100226D01*
X0111478Y0099072D01*
X0112984Y0098448D01*
X0119816Y0098448D01*
X0121322Y0099072D01*
X0122476Y0100226D01*
X0123100Y0101732D01*
X0123100Y0103364D01*
X0122476Y0104870D01*
X0121322Y0106024D01*
X0119816Y0106648D01*
X0112984Y0106648D01*
X0111478Y0106024D01*
X0111158Y0105704D02*
X0091642Y0105704D01*
X0092241Y0105105D02*
X0110559Y0105105D01*
X0110174Y0104507D02*
X0092626Y0104507D01*
X0092874Y0103908D02*
X0109926Y0103908D01*
X0109700Y0103310D02*
X0093100Y0103310D01*
X0093100Y0102711D02*
X0109700Y0102711D01*
X0109700Y0102113D02*
X0093100Y0102113D01*
X0093010Y0101514D02*
X0109790Y0101514D01*
X0110038Y0100916D02*
X0092762Y0100916D01*
X0092514Y0100317D02*
X0110286Y0100317D01*
X0110831Y0099719D02*
X0091969Y0099719D01*
X0091370Y0099120D02*
X0111429Y0099120D01*
X0112806Y0098522D02*
X0089994Y0098522D01*
X0091072Y0096128D02*
X0112251Y0096128D01*
X0111266Y0095529D02*
X0091817Y0095529D01*
X0092416Y0094931D02*
X0110702Y0094931D01*
X0110318Y0094332D02*
X0092699Y0094332D01*
X0092947Y0093734D02*
X0110070Y0093734D01*
X0109940Y0093135D02*
X0093100Y0093135D01*
X0116100Y0093734D02*
X0116700Y0093734D01*
X0116700Y0094332D02*
X0116100Y0094332D01*
X0116100Y0094931D02*
X0116700Y0094931D01*
X0116700Y0095529D02*
X0116100Y0095529D01*
X0116100Y0096128D02*
X0116700Y0096128D01*
X0119994Y0098522D02*
X0130406Y0098522D01*
X0130584Y0098448D02*
X0132216Y0098448D01*
X0133722Y0099072D01*
X0134876Y0100226D01*
X0135500Y0101732D01*
X0135500Y0103364D01*
X0134876Y0104870D01*
X0133722Y0106024D01*
X0132216Y0106648D01*
X0130584Y0106648D01*
X0129078Y0106024D01*
X0127924Y0104870D01*
X0127300Y0103364D01*
X0127300Y0101732D01*
X0127924Y0100226D01*
X0129078Y0099072D01*
X0130584Y0098448D01*
X0129029Y0099120D02*
X0121370Y0099120D01*
X0121969Y0099719D02*
X0128431Y0099719D01*
X0127886Y0100317D02*
X0122514Y0100317D01*
X0122762Y0100916D02*
X0127638Y0100916D01*
X0127390Y0101514D02*
X0123010Y0101514D01*
X0123100Y0102113D02*
X0127300Y0102113D01*
X0127300Y0102711D02*
X0123100Y0102711D01*
X0123100Y0103310D02*
X0127300Y0103310D01*
X0127526Y0103908D02*
X0122874Y0103908D01*
X0122626Y0104507D02*
X0127774Y0104507D01*
X0128159Y0105105D02*
X0122241Y0105105D01*
X0121642Y0105704D02*
X0128758Y0105704D01*
X0129750Y0106302D02*
X0120650Y0106302D01*
X0133050Y0106302D02*
X0149639Y0106302D01*
X0149785Y0106448D02*
X0147500Y0104163D01*
X0147500Y0102848D01*
X0151100Y0102848D01*
X0151100Y0102248D01*
X0151700Y0102248D01*
X0151700Y0098648D01*
X0153015Y0098648D01*
X0155300Y0100933D01*
X0155300Y0102248D01*
X0151700Y0102248D01*
X0151700Y0102848D01*
X0155300Y0102848D01*
X0155300Y0104163D01*
X0153015Y0106448D01*
X0151700Y0106448D01*
X0151700Y0102848D01*
X0151100Y0102848D01*
X0151100Y0106448D01*
X0149785Y0106448D01*
X0149040Y0105704D02*
X0134042Y0105704D01*
X0134641Y0105105D02*
X0148442Y0105105D01*
X0147843Y0104507D02*
X0135026Y0104507D01*
X0135274Y0103908D02*
X0147500Y0103908D01*
X0147500Y0103310D02*
X0135500Y0103310D01*
X0135500Y0102711D02*
X0151100Y0102711D01*
X0151100Y0102248D02*
X0147500Y0102248D01*
X0147500Y0100933D01*
X0149785Y0098648D01*
X0151100Y0098648D01*
X0151100Y0102248D01*
X0151100Y0102113D02*
X0151700Y0102113D01*
X0151700Y0102711D02*
X0164100Y0102711D01*
X0164100Y0102113D02*
X0155300Y0102113D01*
X0155300Y0101514D02*
X0164100Y0101514D01*
X0164100Y0100916D02*
X0155283Y0100916D01*
X0154685Y0100317D02*
X0164100Y0100317D01*
X0164100Y0099719D02*
X0154086Y0099719D01*
X0153488Y0099120D02*
X0164100Y0099120D01*
X0164100Y0098522D02*
X0132394Y0098522D01*
X0133770Y0099120D02*
X0149312Y0099120D01*
X0148714Y0099719D02*
X0134369Y0099719D01*
X0134914Y0100317D02*
X0148115Y0100317D01*
X0147517Y0100916D02*
X0135162Y0100916D01*
X0135410Y0101514D02*
X0147500Y0101514D01*
X0147500Y0102113D02*
X0135500Y0102113D01*
X0122855Y0091938D02*
X0164100Y0091938D01*
X0164100Y0091340D02*
X0122721Y0091340D01*
X0122473Y0090741D02*
X0164100Y0090741D01*
X0164100Y0090143D02*
X0122083Y0090143D01*
X0121511Y0089544D02*
X0164100Y0089544D01*
X0164100Y0088946D02*
X0120494Y0088946D01*
X0116700Y0088946D02*
X0116100Y0088946D01*
X0116100Y0089544D02*
X0116700Y0089544D01*
X0116700Y0090143D02*
X0116100Y0090143D01*
X0116100Y0090741D02*
X0116700Y0090741D01*
X0116700Y0091340D02*
X0116100Y0091340D01*
X0116100Y0091938D02*
X0116700Y0091938D01*
X0111963Y0118871D02*
X0090837Y0118871D01*
X0091720Y0119470D02*
X0111080Y0119470D01*
X0110482Y0120068D02*
X0092318Y0120068D01*
X0092659Y0120667D02*
X0110141Y0120667D01*
X0109894Y0121265D02*
X0092906Y0121265D01*
X0093100Y0121864D02*
X0109700Y0121864D01*
X0109700Y0122462D02*
X0093100Y0122462D01*
X0093100Y0123061D02*
X0109700Y0123061D01*
X0109822Y0123659D02*
X0092978Y0123659D01*
X0092730Y0124258D02*
X0110070Y0124258D01*
X0110318Y0124856D02*
X0092482Y0124856D01*
X0091892Y0125455D02*
X0110908Y0125455D01*
X0111549Y0126053D02*
X0091251Y0126053D01*
X0091259Y0129046D02*
X0111541Y0129046D01*
X0110905Y0129644D02*
X0091895Y0129644D01*
X0092483Y0130243D02*
X0110317Y0130243D01*
X0110069Y0130841D02*
X0092731Y0130841D01*
X0092979Y0131440D02*
X0109821Y0131440D01*
X0109700Y0132038D02*
X0093100Y0132038D01*
X0093100Y0132637D02*
X0109700Y0132637D01*
X0109700Y0133235D02*
X0093100Y0133235D01*
X0092905Y0133834D02*
X0109895Y0133834D01*
X0110143Y0134432D02*
X0092657Y0134432D01*
X0092315Y0135031D02*
X0110485Y0135031D01*
X0111083Y0135629D02*
X0091717Y0135629D01*
X0090830Y0136228D02*
X0111970Y0136228D01*
X0151100Y0106302D02*
X0151700Y0106302D01*
X0151700Y0105704D02*
X0151100Y0105704D01*
X0151100Y0105105D02*
X0151700Y0105105D01*
X0151700Y0104507D02*
X0151100Y0104507D01*
X0151100Y0103908D02*
X0151700Y0103908D01*
X0151700Y0103310D02*
X0151100Y0103310D01*
X0151100Y0101514D02*
X0151700Y0101514D01*
X0151700Y0100916D02*
X0151100Y0100916D01*
X0151100Y0100317D02*
X0151700Y0100317D01*
X0151700Y0099719D02*
X0151100Y0099719D01*
X0151100Y0099120D02*
X0151700Y0099120D01*
X0155300Y0103310D02*
X0164100Y0103310D01*
X0164100Y0103908D02*
X0155300Y0103908D01*
X0154957Y0104507D02*
X0164100Y0104507D01*
X0164100Y0105105D02*
X0154358Y0105105D01*
X0153760Y0105704D02*
X0164100Y0105704D01*
X0163897Y0106302D02*
X0153161Y0106302D01*
X0129427Y0178722D02*
X0120478Y0178722D01*
X0121571Y0179321D02*
X0128829Y0179321D01*
X0128230Y0179919D02*
X0122170Y0179919D01*
X0122597Y0180518D02*
X0127632Y0180518D01*
X0127300Y0181116D02*
X0122845Y0181116D01*
X0123093Y0181715D02*
X0127300Y0181715D01*
X0127300Y0182313D02*
X0123100Y0182313D01*
X0123100Y0182912D02*
X0127300Y0182912D01*
X0127300Y0183510D02*
X0123039Y0183510D01*
X0122791Y0184109D02*
X0127300Y0184109D01*
X0127761Y0184707D02*
X0122543Y0184707D01*
X0122040Y0185306D02*
X0128360Y0185306D01*
X0128958Y0185904D02*
X0121442Y0185904D01*
X0120166Y0186503D02*
X0129557Y0186503D01*
X0094519Y0201466D02*
X0058281Y0201466D01*
X0058879Y0200867D02*
X0093921Y0200867D01*
X0093322Y0200269D02*
X0072120Y0200269D01*
X0073222Y0199670D02*
X0092724Y0199670D01*
X0092300Y0199072D02*
X0073788Y0199072D01*
X0074036Y0198473D02*
X0092300Y0198473D01*
X0092300Y0197875D02*
X0074189Y0197875D01*
X0074189Y0197276D02*
X0092300Y0197276D01*
X0092300Y0196678D02*
X0074058Y0196678D01*
X0073810Y0196079D02*
X0092300Y0196079D01*
X0092669Y0195481D02*
X0073700Y0195481D01*
X0073700Y0194882D02*
X0093268Y0194882D01*
X0093866Y0194284D02*
X0073700Y0194284D01*
X0069012Y0199072D02*
X0060500Y0199072D01*
X0060076Y0199670D02*
X0069578Y0199670D01*
X0070680Y0200269D02*
X0059478Y0200269D01*
X0046700Y0191890D02*
X0046100Y0191890D01*
X0046100Y0192248D02*
X0046100Y0187548D01*
X0046006Y0187548D01*
X0045229Y0187671D01*
X0044481Y0187914D01*
X0043779Y0188272D01*
X0043143Y0188734D01*
X0042586Y0189291D01*
X0042124Y0189927D01*
X0041766Y0190629D01*
X0041523Y0191377D01*
X0041400Y0192155D01*
X0041400Y0192248D01*
X0046100Y0192248D01*
X0046100Y0192488D02*
X0031600Y0192488D01*
X0031600Y0191890D02*
X0041442Y0191890D01*
X0041551Y0191291D02*
X0031508Y0191291D01*
X0031600Y0191514D02*
X0030808Y0189602D01*
X0029346Y0188140D01*
X0027434Y0187348D01*
X0025366Y0187348D01*
X0023454Y0188140D01*
X0021992Y0189602D01*
X0021200Y0191514D01*
X0021200Y0193582D01*
X0021992Y0195494D01*
X0023454Y0196956D01*
X0025366Y0197748D01*
X0027434Y0197748D01*
X0029346Y0196956D01*
X0030808Y0195494D01*
X0031600Y0193582D01*
X0031600Y0191514D01*
X0031260Y0190692D02*
X0041746Y0190692D01*
X0042039Y0190094D02*
X0031012Y0190094D01*
X0030701Y0189495D02*
X0042437Y0189495D01*
X0042980Y0188897D02*
X0030103Y0188897D01*
X0029504Y0188298D02*
X0043743Y0188298D01*
X0045141Y0187700D02*
X0028284Y0187700D01*
X0024516Y0187700D02*
X0008284Y0187700D01*
X0009504Y0188298D02*
X0023296Y0188298D01*
X0022697Y0188897D02*
X0010103Y0188897D01*
X0010701Y0189495D02*
X0022099Y0189495D01*
X0021788Y0190094D02*
X0011012Y0190094D01*
X0011260Y0190692D02*
X0021540Y0190692D01*
X0021292Y0191291D02*
X0011508Y0191291D01*
X0011600Y0191890D02*
X0021200Y0191890D01*
X0021200Y0192488D02*
X0011600Y0192488D01*
X0011600Y0193087D02*
X0021200Y0193087D01*
X0021243Y0193685D02*
X0011557Y0193685D01*
X0011310Y0194284D02*
X0021490Y0194284D01*
X0021738Y0194882D02*
X0011062Y0194882D01*
X0010814Y0195481D02*
X0021986Y0195481D01*
X0022577Y0196079D02*
X0010223Y0196079D01*
X0009624Y0196678D02*
X0023176Y0196678D01*
X0024226Y0197276D02*
X0008574Y0197276D01*
X0004226Y0197276D02*
X0002900Y0197276D01*
X0002900Y0196678D02*
X0003176Y0196678D01*
X0028574Y0197276D02*
X0044771Y0197276D01*
X0043577Y0196678D02*
X0029624Y0196678D01*
X0030223Y0196079D02*
X0042860Y0196079D01*
X0042350Y0195481D02*
X0030814Y0195481D01*
X0031062Y0194882D02*
X0041978Y0194882D01*
X0041707Y0194284D02*
X0031310Y0194284D01*
X0031557Y0193685D02*
X0041518Y0193685D01*
X0041423Y0193087D02*
X0031600Y0193087D01*
X0046100Y0191291D02*
X0046700Y0191291D01*
X0046700Y0190692D02*
X0046100Y0190692D01*
X0046100Y0190094D02*
X0046700Y0190094D01*
X0046700Y0189495D02*
X0046100Y0189495D01*
X0046100Y0188897D02*
X0046700Y0188897D01*
X0046700Y0188298D02*
X0046100Y0188298D01*
X0046100Y0187700D02*
X0046700Y0187700D01*
D20*
X0071400Y0182548D03*
X0071400Y0197548D03*
X0166400Y0107548D03*
X0171020Y0112928D03*
X0146400Y0042548D03*
X0061400Y0062548D03*
X0021400Y0062548D03*
M02*
