%
M48
M72
T01C0.01378
T02C0.03150
T03C0.03200
T04C0.03937
T05C0.04000
T06C0.07480
%
T01
X21400Y62548
X61400Y62548
X146400Y42548
X166400Y107548
X171020Y112928
X71400Y182548
X71400Y197548
T02
X162321Y34347
X167046Y31198
X162321Y28048
X167046Y24898
X162321Y21749
X144274Y17548
X136400Y17548
X128526Y17548
T03
X16400Y12548
X16400Y22548
X36400Y22548
X36400Y12548
X60400Y16048
X76400Y17548
X76400Y27548
X91400Y27548
X98900Y22548
X91400Y17548
X111400Y17548
X111400Y27548
X116400Y52548
X116400Y62548
X116400Y72548
X116400Y82548
X116400Y92548
X116400Y102548
X116400Y112548
X116400Y122548
X116400Y132548
X116400Y142548
X116400Y152548
X116400Y162548
X116400Y172548
X116400Y182548
X131400Y182548
X131400Y172548
X96400Y197548
X86400Y182548
X86400Y172548
X86400Y162548
X86400Y152548
X86400Y142548
X86400Y132548
X86400Y122548
X86400Y112548
X86400Y102548
X86400Y92548
X86400Y82548
X86400Y72548
X86400Y62548
X86400Y52548
X71400Y52548
X71400Y62548
X51400Y77548
X41400Y77548
X31400Y77548
X31400Y117548
X41400Y117548
X51400Y117548
X56400Y197548
X131400Y102548
X151400Y102548
X60400Y36048
T04
X120652Y17548
X152148Y17548
T05
X11400Y52548
X31400Y52548
X6400Y72548
X6400Y82548
X6400Y92548
X6400Y102548
X6400Y112548
X6400Y122548
X6400Y132548
X6400Y142548
X6400Y152548
X6400Y162548
X6400Y172548
X6400Y182548
X6400Y192548
X26400Y192548
X46400Y192548
X66400Y112548
X66400Y102548
X66400Y92548
X193900Y92548
X193900Y102548
X193900Y112548
X193900Y122548
X193900Y132548
X193900Y142548
X193900Y82548
X193900Y72548
T06
X182400Y13678
X182400Y42418
M30
